<?xml version="1.0" encoding="UTF-8" standalone="no"?>
<!DOCTYPE svg PUBLIC "-//W3C//DTD SVG 1.1//EN"
 "http://www.w3.org/Graphics/SVG/1.1/DTD/svg11.dtd">
<!-- Generated by graphviz version 6.0.1 (20220911.1526)
 -->
<!-- Title: network Pages: 1 -->
<svg width="2698pt" height="2077pt"
 viewBox="0.00 0.00 2698.00 2076.99" xmlns="http://www.w3.org/2000/svg" xmlns:xlink="http://www.w3.org/1999/xlink">
<g id="graph0" class="graph" transform="scale(1 1) rotate(0) translate(4 2072.99)">
<title>network</title>
<polygon fill="white" stroke="none" points="-4,4 -4,-2072.99 2694,-2072.99 2694,4 -4,4"/>
<!-- node0 -->
<g id="node1" class="node">
<title>node0</title>
<ellipse fill="none" stroke="black" cx="583" cy="-2042.12" rx="39.7" ry="26.74"/>
<text text-anchor="middle" x="583" y="-2045.92" font-family="Times,serif" font-size="14.00">Node 0</text>
<text text-anchor="middle" x="583" y="-2030.92" font-family="Times,serif" font-size="14.00">Depot</text>
</g>
<!-- node1 -->
<g id="node2" class="node">
<title>node1</title>
<ellipse fill="none" stroke="black" cx="1369" cy="-1926.78" rx="80.72" ry="37.45"/>
<text text-anchor="middle" x="1369" y="-1938.08" font-family="Times,serif" font-size="14.00">Node 1</text>
<text text-anchor="middle" x="1369" y="-1923.08" font-family="Times,serif" font-size="14.00">Demand: 1</text>
<text text-anchor="middle" x="1369" y="-1908.08" font-family="Times,serif" font-size="14.00">Window: [55, 75]</text>
</g>
<!-- node0&#45;&gt;node1 -->
<g id="edge1" class="edge">
<title>node0&#45;&gt;node1</title>
<path fill="none" stroke="black" d="M621.44,-2035.58C741.72,-2018.24 1112.9,-1964.71 1282.66,-1940.23"/>
<polygon fill="black" stroke="black" points="1283.17,-1943.69 1292.57,-1938.8 1282.17,-1936.76 1283.17,-1943.69"/>
<text text-anchor="middle" x="979.5" y="-1986.05" font-family="Times,serif" font-size="14.00">6</text>
</g>
<!-- node2 -->
<g id="node3" class="node">
<title>node2</title>
<ellipse fill="none" stroke="black" cx="1916" cy="-1800.82" rx="80.72" ry="37.45"/>
<text text-anchor="middle" x="1916" y="-1812.12" font-family="Times,serif" font-size="14.00">Node 2</text>
<text text-anchor="middle" x="1916" y="-1797.12" font-family="Times,serif" font-size="14.00">Demand: 1</text>
<text text-anchor="middle" x="1916" y="-1782.12" font-family="Times,serif" font-size="14.00">Window: [75, 95]</text>
</g>
<!-- node0&#45;&gt;node2 -->
<g id="edge2" class="edge">
<title>node0&#45;&gt;node2</title>
<path fill="none" stroke="black" d="M622.78,-2041.19C835.99,-2041.36 1835.49,-2039.89 1884,-1997.25 1925.21,-1961.03 1927.48,-1894.04 1923.34,-1848.7"/>
<polygon fill="black" stroke="black" points="1926.8,-1848.11 1922.27,-1838.53 1919.83,-1848.84 1926.8,-1848.11"/>
<text text-anchor="middle" x="1928.5" y="-1923.08" font-family="Times,serif" font-size="14.00">9</text>
</g>
<!-- node3 -->
<g id="node4" class="node">
<title>node3</title>
<ellipse fill="none" stroke="black" cx="1152" cy="-1674.87" rx="80.72" ry="37.45"/>
<text text-anchor="middle" x="1152" y="-1686.17" font-family="Times,serif" font-size="14.00">Node 3</text>
<text text-anchor="middle" x="1152" y="-1671.17" font-family="Times,serif" font-size="14.00">Demand: 2</text>
<text text-anchor="middle" x="1152" y="-1656.17" font-family="Times,serif" font-size="14.00">Window: [60, 80]</text>
</g>
<!-- node0&#45;&gt;node3 -->
<g id="edge3" class="edge">
<title>node0&#45;&gt;node3</title>
<path fill="none" stroke="black" d="M597.15,-2017.01C620.85,-1978.41 672.04,-1902.43 733,-1856.3 838.31,-1776.6 984.2,-1724.18 1073.13,-1697.31"/>
<polygon fill="black" stroke="black" points="1074.3,-1700.61 1082.88,-1694.4 1072.3,-1693.9 1074.3,-1700.61"/>
<text text-anchor="middle" x="736.5" y="-1860.1" font-family="Times,serif" font-size="14.00">8</text>
</g>
<!-- node4 -->
<g id="node5" class="node">
<title>node4</title>
<ellipse fill="none" stroke="black" cx="1807" cy="-1548.92" rx="80.72" ry="37.45"/>
<text text-anchor="middle" x="1807" y="-1560.22" font-family="Times,serif" font-size="14.00">Node 4</text>
<text text-anchor="middle" x="1807" y="-1545.22" font-family="Times,serif" font-size="14.00">Demand: 3</text>
<text text-anchor="middle" x="1807" y="-1530.22" font-family="Times,serif" font-size="14.00">Window: [35, 55]</text>
</g>
<!-- node0&#45;&gt;node4 -->
<g id="edge4" class="edge">
<title>node0&#45;&gt;node4</title>
<path fill="none" stroke="black" d="M622.86,-2041.41C805.46,-2041.86 1559.76,-2033.72 1712,-1871.3 1784,-1794.48 1801.68,-1665.68 1805.86,-1596.77"/>
<polygon fill="black" stroke="black" points="1809.36,-1596.82 1806.4,-1586.64 1802.37,-1596.44 1809.36,-1596.82"/>
<text text-anchor="middle" x="1777.5" y="-1797.12" font-family="Times,serif" font-size="14.00">6</text>
</g>
<!-- node5 -->
<g id="node6" class="node">
<title>node5</title>
<ellipse fill="none" stroke="black" cx="1072" cy="-1422.96" rx="75.82" ry="37.45"/>
<text text-anchor="middle" x="1072" y="-1434.26" font-family="Times,serif" font-size="14.00">Node 5</text>
<text text-anchor="middle" x="1072" y="-1419.26" font-family="Times,serif" font-size="14.00">Demand: 2</text>
<text text-anchor="middle" x="1072" y="-1404.26" font-family="Times,serif" font-size="14.00">Window: [0, 20]</text>
</g>
<!-- node0&#45;&gt;node5 -->
<g id="edge5" class="edge">
<title>node0&#45;&gt;node5</title>
<path fill="none" stroke="black" d="M578.66,-2015.17C567.85,-1941.05 547.66,-1725.98 653,-1604.39 700.15,-1549.97 891.69,-1481.84 998.73,-1446.92"/>
<polygon fill="black" stroke="black" points="1000.07,-1450.17 1008.5,-1443.75 997.91,-1443.51 1000.07,-1450.17"/>
<text text-anchor="middle" x="592.5" y="-1734.15" font-family="Times,serif" font-size="14.00">3</text>
</g>
<!-- node6 -->
<g id="node7" class="node">
<title>node6</title>
<ellipse fill="none" stroke="black" cx="756" cy="-1297.01" rx="80.72" ry="37.45"/>
<text text-anchor="middle" x="756" y="-1308.31" font-family="Times,serif" font-size="14.00">Node 6</text>
<text text-anchor="middle" x="756" y="-1293.31" font-family="Times,serif" font-size="14.00">Demand: 3</text>
<text text-anchor="middle" x="756" y="-1278.31" font-family="Times,serif" font-size="14.00">Window: [55, 75]</text>
</g>
<!-- node0&#45;&gt;node6 -->
<g id="edge6" class="edge">
<title>node0&#45;&gt;node6</title>
<path fill="none" stroke="black" d="M575.51,-2015.73C573.89,-2009.7 572.28,-2003.28 571,-1997.25 567.93,-1982.74 567.35,-1979.03 566,-1964.25 551.83,-1808.66 555,-1769.13 555,-1612.89 555,-1612.89 555,-1612.89 555,-1421.96 555,-1363.56 617.23,-1331.78 672.44,-1315.07"/>
<polygon fill="black" stroke="black" points="673.66,-1318.36 682.3,-1312.22 671.72,-1311.63 673.66,-1318.36"/>
<text text-anchor="middle" x="558.5" y="-1671.17" font-family="Times,serif" font-size="14.00">6</text>
</g>
<!-- node7 -->
<g id="node8" class="node">
<title>node7</title>
<ellipse fill="none" stroke="black" cx="1238" cy="-1171.06" rx="75.82" ry="37.45"/>
<text text-anchor="middle" x="1238" y="-1182.36" font-family="Times,serif" font-size="14.00">Node 7</text>
<text text-anchor="middle" x="1238" y="-1167.36" font-family="Times,serif" font-size="14.00">Demand: 3</text>
<text text-anchor="middle" x="1238" y="-1152.36" font-family="Times,serif" font-size="14.00">Window: [0, 20]</text>
</g>
<!-- node0&#45;&gt;node7 -->
<g id="edge7" class="edge">
<title>node0&#45;&gt;node7</title>
<path fill="none" stroke="black" d="M571.57,-2016.11C565.51,-2001.36 558.76,-1982.15 556,-1964.25 533.86,-1820.66 497.03,-1772.28 551,-1637.39 579.72,-1565.61 605.85,-1553.08 671,-1511.44 730.33,-1473.52 758.11,-1492.1 821,-1460.44 965.89,-1387.5 1118.27,-1270.13 1192.27,-1210.1"/>
<polygon fill="black" stroke="black" points="1194.5,-1212.8 1200.04,-1203.77 1190.08,-1207.37 1194.5,-1212.8"/>
<text text-anchor="middle" x="570.5" y="-1608.19" font-family="Times,serif" font-size="14.00">2</text>
</g>
<!-- node8 -->
<g id="node9" class="node">
<title>node8</title>
<ellipse fill="none" stroke="black" cx="1775" cy="-1045.1" rx="80.72" ry="37.45"/>
<text text-anchor="middle" x="1775" y="-1056.4" font-family="Times,serif" font-size="14.00">Node 8</text>
<text text-anchor="middle" x="1775" y="-1041.4" font-family="Times,serif" font-size="14.00">Demand: 1</text>
<text text-anchor="middle" x="1775" y="-1026.4" font-family="Times,serif" font-size="14.00">Window: [10, 30]</text>
</g>
<!-- node0&#45;&gt;node8 -->
<g id="edge8" class="edge">
<title>node0&#45;&gt;node8</title>
<path fill="none" stroke="black" d="M622.67,-2041.22C814.71,-2041.49 1649.07,-2040.13 1905,-1997.25 2141.67,-1957.6 2276.4,-2029.81 2421,-1838.3 2484.69,-1753.95 2436.14,-1692.67 2378,-1604.39 2346.54,-1556.63 2332.92,-1548.08 2289,-1511.44 2234.2,-1465.72 2069.44,-1386.9 2021,-1334.49 1951.76,-1259.57 1976.09,-1211.29 1910,-1133.58 1890.66,-1110.84 1863.94,-1091.84 1839.37,-1077.43"/>
<polygon fill="black" stroke="black" points="1840.86,-1074.24 1830.44,-1072.32 1837.38,-1080.32 1840.86,-1074.24"/>
<text text-anchor="middle" x="2368.5" y="-1545.22" font-family="Times,serif" font-size="14.00">3</text>
</g>
<!-- node9 -->
<g id="node10" class="node">
<title>node9</title>
<ellipse fill="none" stroke="black" cx="949" cy="-919.15" rx="75.82" ry="37.45"/>
<text text-anchor="middle" x="949" y="-930.45" font-family="Times,serif" font-size="14.00">Node 9</text>
<text text-anchor="middle" x="949" y="-915.45" font-family="Times,serif" font-size="14.00">Demand: 1</text>
<text text-anchor="middle" x="949" y="-900.45" font-family="Times,serif" font-size="14.00">Window: [0, 20]</text>
</g>
<!-- node0&#45;&gt;node9 -->
<g id="edge9" class="edge">
<title>node0&#45;&gt;node9</title>
<path fill="none" stroke="black" d="M543.19,-2041.41C469.44,-2039.62 319,-2024.17 319,-1927.78 319,-1927.78 319,-1927.78 319,-1610.89 319,-1494.56 456.82,-1220.63 534,-1133.58 605.69,-1052.71 643.91,-1052.98 742,-1007.63 764.96,-997.01 772.45,-998.87 796,-989.63 826.25,-977.75 859.15,-963.06 886.66,-950.24"/>
<polygon fill="black" stroke="black" points="888.2,-953.39 895.77,-945.97 885.23,-947.05 888.2,-953.39"/>
<text text-anchor="middle" x="352.5" y="-1482.24" font-family="Times,serif" font-size="14.00">2</text>
</g>
<!-- node10 -->
<g id="node11" class="node">
<title>node10</title>
<ellipse fill="none" stroke="black" cx="1593" cy="-793.2" rx="80.72" ry="37.45"/>
<text text-anchor="middle" x="1593" y="-804.5" font-family="Times,serif" font-size="14.00">Node 10</text>
<text text-anchor="middle" x="1593" y="-789.5" font-family="Times,serif" font-size="14.00">Demand: 2</text>
<text text-anchor="middle" x="1593" y="-774.5" font-family="Times,serif" font-size="14.00">Window: [75, 95]</text>
</g>
<!-- node0&#45;&gt;node10 -->
<g id="edge10" class="edge">
<title>node0&#45;&gt;node10</title>
<path fill="none" stroke="black" d="M622.69,-2040.95C899.13,-2039.49 2526,-2026.72 2526,-1927.78 2526,-1927.78 2526,-1927.78 2526,-1610.89 2526,-1515.83 2026.64,-1035.96 1954,-974.63 1848.59,-885.63 1806.59,-883.14 1679,-830.67 1673.19,-828.28 1667.17,-825.78 1661.14,-823.26"/>
<polygon fill="black" stroke="black" points="1662.26,-819.93 1651.68,-819.29 1659.55,-826.39 1662.26,-819.93"/>
<text text-anchor="middle" x="2433.5" y="-1419.26" font-family="Times,serif" font-size="14.00">6</text>
</g>
<!-- node11 -->
<g id="node12" class="node">
<title>node11</title>
<ellipse fill="none" stroke="black" cx="936" cy="-667.24" rx="85.62" ry="37.45"/>
<text text-anchor="middle" x="936" y="-678.54" font-family="Times,serif" font-size="14.00">Node 11</text>
<text text-anchor="middle" x="936" y="-663.54" font-family="Times,serif" font-size="14.00">Demand: 1</text>
<text text-anchor="middle" x="936" y="-648.54" font-family="Times,serif" font-size="14.00">Window: [85, 105]</text>
</g>
<!-- node0&#45;&gt;node11 -->
<g id="edge11" class="edge">
<title>node0&#45;&gt;node11</title>
<path fill="none" stroke="black" d="M543.25,-2039.5C493.44,-2036.24 406.33,-2026.49 338,-1997.25 289.91,-1976.68 243,-1980.09 243,-1927.78 243,-1927.78 243,-1927.78 243,-1358.99 243,-1141.09 228.55,-1059.13 355,-881.67 406.71,-809.1 433.71,-800.07 511,-755.72 641.25,-680.99 698.69,-738.51 845,-704.72 852.58,-702.97 860.35,-700.68 868.01,-698.1"/>
<polygon fill="black" stroke="black" points="869.36,-701.34 877.62,-694.7 867.03,-694.74 869.36,-701.34"/>
<text text-anchor="middle" x="246.5" y="-1356.29" font-family="Times,serif" font-size="14.00">6</text>
</g>
<!-- node12 -->
<g id="node13" class="node">
<title>node12</title>
<ellipse fill="none" stroke="black" cx="1514" cy="-541.29" rx="75.82" ry="37.45"/>
<text text-anchor="middle" x="1514" y="-552.59" font-family="Times,serif" font-size="14.00">Node 12</text>
<text text-anchor="middle" x="1514" y="-537.59" font-family="Times,serif" font-size="14.00">Demand: 2</text>
<text text-anchor="middle" x="1514" y="-522.59" font-family="Times,serif" font-size="14.00">Window: [5, 25]</text>
</g>
<!-- node0&#45;&gt;node12 -->
<g id="edge12" class="edge">
<title>node0&#45;&gt;node12</title>
<path fill="none" stroke="black" d="M622.66,-2041.47C806.19,-2042.78 1591.46,-2045.17 2233,-1997.25 2399.42,-1984.82 2602,-2094.66 2602,-1927.78 2602,-1927.78 2602,-1927.78 2602,-1484.94 2602,-1263.23 2596.74,-1179.76 2457,-1007.63 2428.51,-972.53 2404.15,-985.05 2369,-956.63 2207.5,-826.03 2224.37,-715.09 2035,-629.77 1900.89,-569.34 1852.96,-603.69 1708,-578.77 1670.5,-572.32 1629.03,-564.6 1594.09,-557.93"/>
<polygon fill="black" stroke="black" points="1594.43,-554.43 1583.95,-555.99 1593.11,-561.3 1594.43,-554.43"/>
<text text-anchor="middle" x="2601.5" y="-1293.31" font-family="Times,serif" font-size="14.00">4</text>
</g>
<!-- node13 -->
<g id="node14" class="node">
<title>node13</title>
<ellipse fill="none" stroke="black" cx="879" cy="-415.34" rx="80.72" ry="37.45"/>
<text text-anchor="middle" x="879" y="-426.64" font-family="Times,serif" font-size="14.00">Node 13</text>
<text text-anchor="middle" x="879" y="-411.64" font-family="Times,serif" font-size="14.00">Demand: 3</text>
<text text-anchor="middle" x="879" y="-396.64" font-family="Times,serif" font-size="14.00">Window: [15, 35]</text>
</g>
<!-- node0&#45;&gt;node13 -->
<g id="edge13" class="edge">
<title>node0&#45;&gt;node13</title>
<path fill="none" stroke="black" d="M543.22,-2040.7C423.7,-2038.37 76,-2023.38 76,-1927.78 76,-1927.78 76,-1927.78 76,-981.13 76,-842.02 354.8,-562.33 481,-503.81 581.12,-457.39 707,-435.06 790.08,-424.7"/>
<polygon fill="black" stroke="black" points="790.74,-428.15 800.25,-423.47 789.9,-421.2 790.74,-428.15"/>
<text text-anchor="middle" x="79.5" y="-1230.33" font-family="Times,serif" font-size="14.00">4</text>
</g>
<!-- node14 -->
<g id="node15" class="node">
<title>node14</title>
<ellipse fill="none" stroke="black" cx="1713" cy="-289.38" rx="80.72" ry="37.45"/>
<text text-anchor="middle" x="1713" y="-300.68" font-family="Times,serif" font-size="14.00">Node 14</text>
<text text-anchor="middle" x="1713" y="-285.68" font-family="Times,serif" font-size="14.00">Demand: 3</text>
<text text-anchor="middle" x="1713" y="-270.68" font-family="Times,serif" font-size="14.00">Window: [10, 30]</text>
</g>
<!-- node0&#45;&gt;node14 -->
<g id="edge14" class="edge">
<title>node0&#45;&gt;node14</title>
<path fill="none" stroke="black" d="M622.89,-2040.98C857.29,-2040.04 2057.92,-2033.47 2425,-1997.25 2530.42,-1986.85 2653,-2033.71 2653,-1927.78 2653,-1927.78 2653,-1927.78 2653,-1233.03 2653,-821.85 2651.27,-591.6 2300,-377.86 2218.29,-328.14 1946.33,-304.53 1803.07,-295.3"/>
<polygon fill="black" stroke="black" points="1803.18,-291.8 1792.98,-294.67 1802.74,-298.79 1803.18,-291.8"/>
<text text-anchor="middle" x="2655.5" y="-1167.36" font-family="Times,serif" font-size="14.00">5</text>
</g>
<!-- node15 -->
<g id="node16" class="node">
<title>node15</title>
<ellipse fill="none" stroke="black" cx="1200" cy="-163.43" rx="80.72" ry="37.45"/>
<text text-anchor="middle" x="1200" y="-174.73" font-family="Times,serif" font-size="14.00">Node 15</text>
<text text-anchor="middle" x="1200" y="-159.73" font-family="Times,serif" font-size="14.00">Demand: 1</text>
<text text-anchor="middle" x="1200" y="-144.73" font-family="Times,serif" font-size="14.00">Window: [45, 65]</text>
</g>
<!-- node0&#45;&gt;node15 -->
<g id="edge15" class="edge">
<title>node0&#45;&gt;node15</title>
<path fill="none" stroke="black" d="M543.37,-2041.32C417.95,-2040.89 38,-2031.06 38,-1927.78 38,-1927.78 38,-1927.78 38,-981.13 38,-824.32 0.01,-770.08 70,-629.77 181.64,-405.96 271.88,-379.48 487,-251.91 590.28,-190.66 941.62,-172.06 1109.39,-166.6"/>
<polygon fill="black" stroke="black" points="1109.55,-170.1 1119.44,-166.28 1109.33,-163.1 1109.55,-170.1"/>
<text text-anchor="middle" x="41.5" y="-1104.38" font-family="Times,serif" font-size="14.00">9</text>
</g>
<!-- node16 -->
<g id="node17" class="node">
<title>node16</title>
<ellipse fill="none" stroke="black" cx="1292" cy="-37.48" rx="80.72" ry="37.45"/>
<text text-anchor="middle" x="1292" y="-48.78" font-family="Times,serif" font-size="14.00">Node 16</text>
<text text-anchor="middle" x="1292" y="-33.78" font-family="Times,serif" font-size="14.00">Demand: 1</text>
<text text-anchor="middle" x="1292" y="-18.78" font-family="Times,serif" font-size="14.00">Window: [30, 50]</text>
</g>
<!-- node0&#45;&gt;node16 -->
<g id="edge16" class="edge">
<title>node0&#45;&gt;node16</title>
<path fill="none" stroke="black" d="M543.39,-2041.86C412.17,-2043.24 0,-2038.75 0,-1927.78 0,-1927.78 0,-1927.78 0,-162.43 0,-41.62 906.7,-36.23 1200.97,-37.67"/>
<polygon fill="black" stroke="black" points="1201.16,-41.17 1211.18,-37.72 1201.2,-34.17 1201.16,-41.17"/>
<text text-anchor="middle" x="3.5" y="-1041.4" font-family="Times,serif" font-size="14.00">7</text>
</g>
<!-- node1&#45;&gt;node2 -->
<g id="edge17" class="edge">
<title>node1&#45;&gt;node2</title>
<path fill="none" stroke="black" d="M1443.11,-1911.88C1497.69,-1901.4 1573.65,-1886.31 1640,-1871.3 1706.72,-1856.21 1781.99,-1837.12 1837.05,-1822.77"/>
<polygon fill="black" stroke="black" points="1837.96,-1826.15 1846.75,-1820.24 1836.19,-1819.38 1837.96,-1826.15"/>
<text text-anchor="middle" x="1704.5" y="-1860.1" font-family="Times,serif" font-size="14.00">8</text>
</g>
<!-- node1&#45;&gt;node3 -->
<g id="edge18" class="edge">
<title>node1&#45;&gt;node3</title>
<path fill="none" stroke="black" d="M1339.51,-1891.81C1300.24,-1846.59 1230.81,-1766.63 1188.35,-1717.73"/>
<polygon fill="black" stroke="black" points="1190.97,-1715.42 1181.78,-1710.16 1185.69,-1720.01 1190.97,-1715.42"/>
<text text-anchor="middle" x="1296.5" y="-1797.12" font-family="Times,serif" font-size="14.00">3</text>
</g>
<!-- node1&#45;&gt;node4 -->
<g id="edge19" class="edge">
<title>node1&#45;&gt;node4</title>
<path fill="none" stroke="black" d="M1447.9,-1918.65C1487.09,-1911.71 1533.18,-1898.08 1567,-1871.3 1622.97,-1826.99 1602.68,-1788.55 1644,-1730.35 1680.73,-1678.61 1730.52,-1625.42 1765.37,-1590.33"/>
<polygon fill="black" stroke="black" points="1767.98,-1592.67 1772.57,-1583.12 1763.03,-1587.72 1767.98,-1592.67"/>
<text text-anchor="middle" x="1647.5" y="-1734.15" font-family="Times,serif" font-size="14.00">2</text>
</g>
<!-- node1&#45;&gt;node5 -->
<g id="edge20" class="edge">
<title>node1&#45;&gt;node5</title>
<path fill="none" stroke="black" d="M1304.57,-1903.98C1228.41,-1874.24 1105.63,-1812.87 1055,-1712.35 1015.76,-1634.43 1037.69,-1529.27 1055.78,-1469.85"/>
<polygon fill="black" stroke="black" points="1059.22,-1470.6 1058.87,-1460.01 1052.54,-1468.5 1059.22,-1470.6"/>
<text text-anchor="middle" x="1058.5" y="-1671.17" font-family="Times,serif" font-size="14.00">6</text>
</g>
<!-- node1&#45;&gt;node6 -->
<g id="edge21" class="edge">
<title>node1&#45;&gt;node6</title>
<path fill="none" stroke="black" d="M1294.38,-1912.26C1235.07,-1899.32 1151.47,-1876.09 1086,-1838.3 943.29,-1755.94 904.77,-1723.91 814,-1586.39 764.93,-1512.06 755.8,-1405.16 754.97,-1344.56"/>
<polygon fill="black" stroke="black" points="758.47,-1344.51 754.9,-1334.53 751.47,-1344.55 758.47,-1344.51"/>
<text text-anchor="middle" x="839.5" y="-1608.19" font-family="Times,serif" font-size="14.00">8</text>
</g>
<!-- node1&#45;&gt;node7 -->
<g id="edge22" class="edge">
<title>node1&#45;&gt;node7</title>
<path fill="none" stroke="black" d="M1407,-1893.63C1445.2,-1857.26 1496.98,-1794.66 1486,-1730.35 1450.97,-1525.21 1323.95,-1306.55 1266.53,-1215.62"/>
<polygon fill="black" stroke="black" points="1269.35,-1213.52 1261.03,-1206.96 1263.44,-1217.28 1269.35,-1213.52"/>
<text text-anchor="middle" x="1452.5" y="-1545.22" font-family="Times,serif" font-size="14.00">4</text>
</g>
<!-- node1&#45;&gt;node8 -->
<g id="edge23" class="edge">
<title>node1&#45;&gt;node8</title>
<path fill="none" stroke="black" d="M1444.57,-1913.44C1536.46,-1898.68 1696.34,-1873.78 1834,-1856.3 1950.35,-1841.53 2278.7,-1838.47 2350,-1745.35 2500.3,-1549.05 2115.84,-1537.68 1975,-1334.49 1960.85,-1314.07 1892.19,-1153.23 1877,-1133.58 1862.65,-1115.01 1843.83,-1097.53 1826.27,-1083.14"/>
<polygon fill="black" stroke="black" points="1828.3,-1080.29 1818.31,-1076.76 1823.92,-1085.75 1828.3,-1080.29"/>
<text text-anchor="middle" x="2181.5" y="-1482.24" font-family="Times,serif" font-size="14.00">8</text>
</g>
<!-- node1&#45;&gt;node9 -->
<g id="edge24" class="edge">
<title>node1&#45;&gt;node9</title>
<path fill="none" stroke="black" d="M1288.91,-1922.34C1203.65,-1915.63 1067.2,-1895.94 965,-1838.3 738.2,-1710.39 719.22,-1589.37 666,-1334.49 633.25,-1177.66 707.34,-1123.48 818,-1007.63 824.48,-1000.84 861.66,-976.19 894.76,-954.78"/>
<polygon fill="black" stroke="black" points="897.01,-957.5 903.51,-949.13 893.21,-951.62 897.01,-957.5"/>
<text text-anchor="middle" x="696.5" y="-1419.26" font-family="Times,serif" font-size="14.00">8</text>
</g>
<!-- node1&#45;&gt;node10 -->
<g id="edge25" class="edge">
<title>node1&#45;&gt;node10</title>
<path fill="none" stroke="black" d="M1422.39,-1898.5C1445.5,-1883.86 1470.52,-1863.58 1485,-1838.3 1563.13,-1701.84 1540.93,-1648.98 1564,-1493.44 1587.53,-1334.85 1546.78,-1288.24 1589,-1133.58 1591.36,-1124.95 1594.49,-1123.81 1598,-1115.58 1621.33,-1060.91 1632.85,-1048.2 1643,-989.63 1652.04,-937.46 1632.96,-878.74 1615.83,-839.41"/>
<polygon fill="black" stroke="black" points="1618.82,-837.54 1611.53,-829.85 1612.44,-840.4 1618.82,-837.54"/>
<text text-anchor="middle" x="1579" y="-1356.29" font-family="Times,serif" font-size="14.00">13</text>
</g>
<!-- node1&#45;&gt;node11 -->
<g id="edge26" class="edge">
<title>node1&#45;&gt;node11</title>
<path fill="none" stroke="black" d="M1288.29,-1925.38C1122.95,-1923.68 751.33,-1914.94 633,-1871.3 609.73,-1862.72 604.51,-1856.81 588,-1838.3 470.48,-1706.59 436.29,-1664.05 391,-1493.44 347.64,-1330.14 441.79,-859.66 575,-755.72 671.28,-680.59 727.77,-738.93 845,-704.72 851.96,-702.69 859.13,-700.32 866.24,-697.79"/>
<polygon fill="black" stroke="black" points="867.7,-700.98 875.88,-694.24 865.29,-694.41 867.7,-700.98"/>
<text text-anchor="middle" x="392.5" y="-1293.31" font-family="Times,serif" font-size="14.00">7</text>
</g>
<!-- node1&#45;&gt;node12 -->
<g id="edge27" class="edge">
<title>node1&#45;&gt;node12</title>
<path fill="none" stroke="black" d="M1449.11,-1921.45C1629.37,-1911.07 2062,-1882.26 2201,-1838.3 2297.95,-1807.64 2354.14,-1806.72 2392,-1712.35 2446.38,-1576.79 2461.2,-1527.24 2426,-1385.49 2395.36,-1262.11 2234.86,-980.58 2155,-881.67 2043.69,-743.81 2003.86,-710.23 1846,-629.77 1801.28,-606.97 1786.4,-610.04 1738,-596.77 1689.84,-583.56 1635.41,-570.29 1592.26,-560.15"/>
<polygon fill="black" stroke="black" points="1592.93,-556.71 1582.39,-557.84 1591.33,-563.53 1592.93,-556.71"/>
<text text-anchor="middle" x="2372.5" y="-1230.33" font-family="Times,serif" font-size="14.00">5</text>
</g>
<!-- node1&#45;&gt;node13 -->
<g id="edge28" class="edge">
<title>node1&#45;&gt;node13</title>
<path fill="none" stroke="black" d="M1288.2,-1924.96C1102.61,-1921.91 651.64,-1907.39 519,-1838.3 415.32,-1784.3 192.43,-1570.49 153,-1460.44 66.12,-1217.93 80.72,-1117.66 184,-881.67 191.12,-865.4 367.29,-641.07 381,-629.77 419.5,-598.03 437.4,-603.02 481,-578.77 537.28,-547.46 547.78,-533.36 605,-503.81 637.72,-486.92 646.27,-483.06 681,-470.81 718.96,-457.43 761.94,-445.25 798.13,-435.83"/>
<polygon fill="black" stroke="black" points="799.34,-439.13 808.15,-433.24 797.6,-432.35 799.34,-439.13"/>
<text text-anchor="middle" x="104.5" y="-1167.36" font-family="Times,serif" font-size="14.00">8</text>
</g>
<!-- node1&#45;&gt;node14 -->
<g id="edge29" class="edge">
<title>node1&#45;&gt;node14</title>
<path fill="none" stroke="black" d="M1448.73,-1920.63C1609.85,-1910.09 1969.34,-1885.82 2092,-1871.3 2183.21,-1860.51 2213.3,-1878.26 2296,-1838.3 2468.22,-1755.09 2463.11,-1647.72 2502,-1460.44 2528.36,-1333.49 2611.25,-1006.45 2576,-881.67 2522.43,-692.03 2452.43,-668.36 2344,-503.81 2328.73,-480.65 2322.92,-476.21 2308,-452.81 2287.35,-420.43 2297.11,-398.93 2265,-377.86 2234.9,-358.11 2139.36,-366.62 2104,-359.86 2079.11,-355.1 2073.76,-350.23 2049,-344.86 1965.23,-326.7 1868.51,-311.63 1800.42,-301.98"/>
<polygon fill="black" stroke="black" points="1800.56,-298.46 1790.17,-300.53 1799.58,-305.39 1800.56,-298.46"/>
<text text-anchor="middle" x="2579" y="-1104.38" font-family="Times,serif" font-size="14.00">12</text>
</g>
<!-- node1&#45;&gt;node15 -->
<g id="edge30" class="edge">
<title>node1&#45;&gt;node15</title>
<path fill="none" stroke="black" d="M1291.63,-1916.14C1216.38,-1906.35 1098.98,-1890.02 998,-1871.3 932.16,-1859.09 914.78,-1858.67 851,-1838.3 713.25,-1794.3 677.63,-1782.19 551,-1712.35 465.5,-1665.19 447.86,-1646.61 371,-1586.39 304.07,-1533.95 275.09,-1530.56 227,-1460.44 193.29,-1411.29 191.38,-1393.17 181,-1334.49 147.21,-1143.47 178.89,-1080.69 283,-722.72 312.24,-622.19 328.13,-599.77 370,-503.81 394.8,-446.98 387.37,-422.89 430,-377.86 441.49,-365.73 450.3,-370.72 463,-359.86 509,-320.53 494.57,-283.81 546,-251.91 638.28,-194.67 952.57,-174.23 1109.42,-167.48"/>
<polygon fill="black" stroke="black" points="1109.68,-170.97 1119.52,-167.06 1109.39,-163.98 1109.68,-170.97"/>
<text text-anchor="middle" x="208" y="-1041.4" font-family="Times,serif" font-size="14.00">10</text>
</g>
<!-- node1&#45;&gt;node16 -->
<g id="edge31" class="edge">
<title>node1&#45;&gt;node16</title>
<path fill="none" stroke="black" d="M1448.6,-1920.28C1553.44,-1913.06 1743.53,-1900.04 1906,-1889.3 2030.43,-1881.07 2062.26,-1886.76 2186,-1871.3 2265.41,-1861.38 2287.09,-1863.62 2363,-1838.3 2457.55,-1806.77 2564,-1838.52 2564,-1738.85 2564,-1738.85 2564,-1738.85 2564,-1484.94 2564,-1427.81 2676,-1040.26 2676,-983.13 2676,-983.13 2676,-983.13 2676,-162.43 2676,-150.26 2469.61,-93.57 2466,-92.95 2258.17,-57.51 1620.84,-43.79 1382.87,-39.82"/>
<polygon fill="black" stroke="black" points="1382.92,-36.32 1372.87,-39.65 1382.81,-43.32 1382.92,-36.32"/>
<text text-anchor="middle" x="2683" y="-978.43" font-family="Times,serif" font-size="14.00">14</text>
</g>
<!-- node2&#45;&gt;node3 -->
<g id="edge32" class="edge">
<title>node2&#45;&gt;node3</title>
<path fill="none" stroke="black" d="M1845.75,-1782.09C1816.87,-1775.35 1782.99,-1768.15 1752,-1763.35 1662.93,-1749.53 1639.36,-1757.11 1550,-1745.35 1440.79,-1730.98 1315.81,-1708.09 1235.49,-1692.55"/>
<polygon fill="black" stroke="black" points="1235.92,-1689.07 1225.44,-1690.6 1234.59,-1695.94 1235.92,-1689.07"/>
<text text-anchor="middle" x="1557" y="-1734.15" font-family="Times,serif" font-size="14.00">11</text>
</g>
<!-- node2&#45;&gt;node4 -->
<g id="edge33" class="edge">
<title>node2&#45;&gt;node4</title>
<path fill="none" stroke="black" d="M1900.38,-1764.02C1881.01,-1719.61 1847.97,-1643.84 1826.83,-1595.37"/>
<polygon fill="black" stroke="black" points="1829.97,-1593.83 1822.76,-1586.06 1823.55,-1596.63 1829.97,-1593.83"/>
<text text-anchor="middle" x="1885" y="-1671.17" font-family="Times,serif" font-size="14.00">10</text>
</g>
<!-- node2&#45;&gt;node5 -->
<g id="edge34" class="edge">
<title>node2&#45;&gt;node5</title>
<path fill="none" stroke="black" d="M1844.78,-1782.82C1816.06,-1776.27 1782.54,-1769.01 1752,-1763.35 1698.54,-1753.44 1682.57,-1762.57 1631,-1745.35 1426.67,-1677.09 1213.65,-1529.85 1120.48,-1460.94"/>
<polygon fill="black" stroke="black" points="1122.49,-1458.07 1112.37,-1454.91 1118.31,-1463.69 1122.49,-1458.07"/>
<text text-anchor="middle" x="1359.5" y="-1608.19" font-family="Times,serif" font-size="14.00">6</text>
</g>
<!-- node2&#45;&gt;node6 -->
<g id="edge35" class="edge">
<title>node2&#45;&gt;node6</title>
<path fill="none" stroke="black" d="M1841.95,-1785.59C1800.57,-1776.45 1748.52,-1762.98 1704,-1745.35 1587.25,-1699.1 1309.23,-1544.56 1216,-1460.44 1184.52,-1432.04 1193.48,-1407.08 1157,-1385.49 1038.36,-1315.25 984.03,-1370.71 851,-1334.49 842.3,-1332.12 833.29,-1329.24 824.45,-1326.16"/>
<polygon fill="black" stroke="black" points="825.53,-1322.83 814.93,-1322.74 823.16,-1329.42 825.53,-1322.83"/>
<text text-anchor="middle" x="1401.5" y="-1545.22" font-family="Times,serif" font-size="14.00">3</text>
</g>
<!-- node2&#45;&gt;node7 -->
<g id="edge36" class="edge">
<title>node2&#45;&gt;node7</title>
<path fill="none" stroke="black" d="M1847.46,-1781.02C1796.19,-1766.77 1734.08,-1749.03 1729,-1745.35 1502.76,-1581.4 1597.52,-1394.17 1374,-1226.53 1353.42,-1211.1 1342.98,-1217.83 1319,-1208.53 1313.24,-1206.3 1307.31,-1203.88 1301.39,-1201.37"/>
<polygon fill="black" stroke="black" points="1302.69,-1198.13 1292.13,-1197.39 1299.93,-1204.56 1302.69,-1198.13"/>
<text text-anchor="middle" x="1556.5" y="-1482.24" font-family="Times,serif" font-size="14.00">9</text>
</g>
<!-- node2&#45;&gt;node8 -->
<g id="edge37" class="edge">
<title>node2&#45;&gt;node8</title>
<path fill="none" stroke="black" d="M1916,-1763.21C1916,-1738.53 1916,-1705.24 1916,-1675.87 1916,-1675.87 1916,-1675.87 1916,-1484.94 1916,-1355.88 1866.45,-1331.41 1827,-1208.53 1814.37,-1169.19 1800.05,-1124.47 1789.65,-1091.92"/>
<polygon fill="black" stroke="black" points="1792.93,-1090.7 1786.55,-1082.24 1786.26,-1092.83 1792.93,-1090.7"/>
<text text-anchor="middle" x="1919.5" y="-1419.26" font-family="Times,serif" font-size="14.00">5</text>
</g>
<!-- node2&#45;&gt;node9 -->
<g id="edge38" class="edge">
<title>node2&#45;&gt;node9</title>
<path fill="none" stroke="black" d="M1929.45,-1763.74C1958.41,-1679.15 2015.67,-1466.61 1908,-1352.49 1668.87,-1099.02 1563.63,-1038.18 1221,-974.63 1149.77,-961.41 1129.77,-972.11 1059,-956.63 1045.64,-953.7 1031.61,-949.76 1018.22,-945.54"/>
<polygon fill="black" stroke="black" points="1019.19,-942.18 1008.6,-942.43 1017.04,-948.84 1019.19,-942.18"/>
<text text-anchor="middle" x="1923.5" y="-1356.29" font-family="Times,serif" font-size="14.00">8</text>
</g>
<!-- node2&#45;&gt;node10 -->
<g id="edge39" class="edge">
<title>node2&#45;&gt;node10</title>
<path fill="none" stroke="black" d="M1954.98,-1767.6C2016.28,-1712.8 2125.79,-1595.92 2101,-1478.44 2077.38,-1366.52 1961.08,-1099.54 1893,-1007.63 1880.25,-990.41 1764.51,-894.02 1747,-881.67 1718.2,-861.37 1684.33,-841.71 1655.69,-826.19"/>
<polygon fill="black" stroke="black" points="1657.06,-822.95 1646.59,-821.3 1653.74,-829.12 1657.06,-822.95"/>
<text text-anchor="middle" x="2058.5" y="-1293.31" font-family="Times,serif" font-size="14.00">4</text>
</g>
<!-- node2&#45;&gt;node11 -->
<g id="edge40" class="edge">
<title>node2&#45;&gt;node11</title>
<path fill="none" stroke="black" d="M1972,-1773.54C1999.16,-1758.61 2030.66,-1737.8 2053,-1712.35 2093.78,-1665.88 2096.95,-1646.35 2112,-1586.39 2151.83,-1427.71 2008.89,-1002.87 1899,-881.67 1690.1,-651.28 1531.82,-731.77 1222,-704.72 1156.38,-698.99 1082.65,-689.51 1026.48,-681.65"/>
<polygon fill="black" stroke="black" points="1026.95,-678.19 1016.56,-680.26 1025.98,-685.12 1026.95,-678.19"/>
<text text-anchor="middle" x="2076" y="-1230.33" font-family="Times,serif" font-size="14.00">15</text>
</g>
<!-- node2&#45;&gt;node12 -->
<g id="edge41" class="edge">
<title>node2&#45;&gt;node12</title>
<path fill="none" stroke="black" d="M1976.27,-1775.78C1996.85,-1766.93 2019.76,-1756.37 2040,-1745.35 2172.88,-1672.98 2218.15,-1635.95 2269,-1493.44 2293.99,-1423.39 2227.99,-1045.27 2189,-974.63 2141.28,-888.16 1815.42,-649.94 1778,-629.77 1718.88,-597.9 1646.07,-574.84 1591.9,-560.42"/>
<polygon fill="black" stroke="black" points="1592.57,-556.98 1582.01,-557.83 1590.79,-563.75 1592.57,-556.98"/>
<text text-anchor="middle" x="2255" y="-1167.36" font-family="Times,serif" font-size="14.00">13</text>
</g>
<!-- node2&#45;&gt;node13 -->
<g id="edge42" class="edge">
<title>node2&#45;&gt;node13</title>
<path fill="none" stroke="black" d="M1983.51,-1780.23C2045.25,-1761.49 2131.21,-1733.1 2160,-1712.35 2251.27,-1646.56 2242.95,-1598.68 2314,-1511.44 2333.28,-1487.77 2349.05,-1488.93 2360,-1460.44 2404.48,-1344.72 2388.76,-1277.27 2277,-1007.63 2200.64,-823.4 2176.71,-770.09 2035,-629.77 1960.09,-555.59 1932.48,-541.44 1834,-503.81 1753.12,-472.91 1728.16,-479.33 1642,-470.81 1494.22,-456.2 1119.63,-481.85 974,-452.81 964.68,-450.95 955.08,-448.27 945.73,-445.18"/>
<polygon fill="black" stroke="black" points="946.69,-441.81 936.1,-441.83 944.39,-448.42 946.69,-441.81"/>
<text text-anchor="middle" x="2327" y="-1104.38" font-family="Times,serif" font-size="14.00">13</text>
</g>
<!-- node2&#45;&gt;node14 -->
<g id="edge43" class="edge">
<title>node2&#45;&gt;node14</title>
<path fill="none" stroke="black" d="M1981.9,-1779.08C2000,-1773.66 2019.69,-1768.04 2038,-1763.35 2115.65,-1743.45 2147.19,-1760.87 2211,-1712.35 2265.97,-1670.55 2262.93,-1643.34 2302,-1586.39 2311.45,-1572.62 2378.23,-1476.11 2384,-1460.44 2459,-1256.7 2462.34,-1190 2435,-974.63 2407.76,-760.08 2411.16,-696.02 2312,-503.81 2298.54,-477.72 2286.07,-477.39 2270,-452.81 2249.56,-421.55 2262.63,-399.24 2232,-377.86 2203.93,-358.27 2112.84,-365.06 2079,-359.86 1981.31,-344.86 1869.84,-323.01 1795.84,-307.84"/>
<polygon fill="black" stroke="black" points="1796.15,-304.33 1785.65,-305.74 1794.74,-311.18 1796.15,-304.33"/>
<text text-anchor="middle" x="2449.5" y="-1041.4" font-family="Times,serif" font-size="14.00">9</text>
</g>
<!-- node2&#45;&gt;node15 -->
<g id="edge44" class="edge">
<title>node2&#45;&gt;node15</title>
<path fill="none" stroke="black" d="M1864.56,-1771.83C1814.99,-1741.6 1743.08,-1688.37 1712,-1619.39 1705.42,-1604.78 1683.17,-1671.03 1717,-1511.44 1754.27,-1335.63 1749.6,-1274.61 1861,-1133.58 1922.66,-1055.53 1957.25,-1052.54 2046,-1007.63 2067.45,-996.77 2081.02,-1007.58 2097,-989.63 2137.12,-944.53 2127,-917.53 2127,-857.17 2127,-857.17 2127,-857.17 2127,-477.31 2127,-336.7 2031.99,-312.27 1905,-251.91 1820.86,-211.91 1790.33,-231.31 1698,-218.91 1621.18,-208.59 1409.92,-186.23 1288.67,-173.6"/>
<polygon fill="black" stroke="black" points="1288.97,-170.11 1278.66,-172.56 1288.24,-177.07 1288.97,-170.11"/>
<text text-anchor="middle" x="2116" y="-978.43" font-family="Times,serif" font-size="14.00">18</text>
</g>
<!-- node2&#45;&gt;node16 -->
<g id="edge45" class="edge">
<title>node2&#45;&gt;node16</title>
<path fill="none" stroke="black" d="M1980.71,-1778.33C1999.07,-1772.82 2019.18,-1767.33 2038,-1763.35 2134.92,-1742.81 2178.63,-1775.46 2255,-1712.35 2336.43,-1645.05 2330.54,-1603.7 2382,-1511.44 2394.7,-1488.67 2401.58,-1484.75 2411,-1460.44 2426.3,-1420.95 2422.74,-1408.82 2432,-1367.49 2495.12,-1085.85 2562,-1019.85 2562,-731.22 2562,-731.22 2562,-731.22 2562,-162.43 2562,-43.86 1673.82,-36.92 1382.98,-37.82"/>
<polygon fill="black" stroke="black" points="1382.88,-34.32 1372.89,-37.86 1382.9,-41.32 1382.88,-34.32"/>
<text text-anchor="middle" x="2557.5" y="-915.45" font-family="Times,serif" font-size="14.00">9</text>
</g>
<!-- node3&#45;&gt;node4 -->
<g id="edge46" class="edge">
<title>node3&#45;&gt;node4</title>
<path fill="none" stroke="black" d="M1231.2,-1667.37C1316.11,-1659.53 1454.56,-1644.21 1572,-1619.39 1626.79,-1607.82 1687.37,-1589.77 1733.3,-1574.98"/>
<polygon fill="black" stroke="black" points="1734.44,-1578.29 1742.87,-1571.87 1732.28,-1571.63 1734.44,-1578.29"/>
<text text-anchor="middle" x="1634.5" y="-1608.19" font-family="Times,serif" font-size="14.00">1</text>
</g>
<!-- node3&#45;&gt;node5 -->
<g id="edge47" class="edge">
<title>node3&#45;&gt;node5</title>
<path fill="none" stroke="black" d="M1140.37,-1637.53C1126.18,-1593.2 1102.17,-1518.22 1086.71,-1469.93"/>
<polygon fill="black" stroke="black" points="1090.03,-1468.8 1083.65,-1460.35 1083.36,-1470.94 1090.03,-1468.8"/>
<text text-anchor="middle" x="1127.5" y="-1545.22" font-family="Times,serif" font-size="14.00">7</text>
</g>
<!-- node3&#45;&gt;node6 -->
<g id="edge48" class="edge">
<title>node3&#45;&gt;node6</title>
<path fill="none" stroke="black" d="M1074.1,-1664.9C1010.01,-1656.14 925.55,-1640.96 899,-1619.39 812.36,-1549.03 776.55,-1415.33 763.14,-1344.59"/>
<polygon fill="black" stroke="black" points="766.56,-1343.84 761.32,-1334.63 759.68,-1345.09 766.56,-1343.84"/>
<text text-anchor="middle" x="816" y="-1482.24" font-family="Times,serif" font-size="14.00">10</text>
</g>
<!-- node3&#45;&gt;node7 -->
<g id="edge49" class="edge">
<title>node3&#45;&gt;node7</title>
<path fill="none" stroke="black" d="M1190.47,-1641.68C1213.37,-1618.78 1238,-1585.8 1238,-1549.92 1238,-1549.92 1238,-1549.92 1238,-1296.01 1238,-1270.54 1238,-1242.12 1238,-1218.93"/>
<polygon fill="black" stroke="black" points="1241.5,-1218.67 1238,-1208.67 1234.5,-1218.67 1241.5,-1218.67"/>
<text text-anchor="middle" x="1241.5" y="-1419.26" font-family="Times,serif" font-size="14.00">6</text>
</g>
<!-- node3&#45;&gt;node8 -->
<g id="edge50" class="edge">
<title>node3&#45;&gt;node8</title>
<path fill="none" stroke="black" d="M1232.72,-1672.63C1308.52,-1667.38 1421.04,-1648.59 1495,-1586.39 1629.24,-1473.51 1572.95,-1380.48 1657,-1226.53 1683.57,-1177.87 1718.9,-1125.12 1743.95,-1089.3"/>
<polygon fill="black" stroke="black" points="1746.88,-1091.21 1749.77,-1081.02 1741.16,-1087.19 1746.88,-1091.21"/>
<text text-anchor="middle" x="1617" y="-1356.29" font-family="Times,serif" font-size="14.00">10</text>
</g>
<!-- node3&#45;&gt;node9 -->
<g id="edge51" class="edge">
<title>node3&#45;&gt;node9</title>
<path fill="none" stroke="black" d="M1110.35,-1642.55C1047.72,-1592.55 931.86,-1487.93 887,-1367.49 884.67,-1361.24 886.53,-1359.14 887,-1352.49 888.36,-1333.37 926.26,-1074.67 942.12,-966.83"/>
<polygon fill="black" stroke="black" points="945.59,-967.28 943.59,-956.88 938.67,-966.26 945.59,-967.28"/>
<text text-anchor="middle" x="907" y="-1293.31" font-family="Times,serif" font-size="14.00">10</text>
</g>
<!-- node3&#45;&gt;node10 -->
<g id="edge52" class="edge">
<title>node3&#45;&gt;node10</title>
<path fill="none" stroke="black" d="M1228.82,-1663.43C1279.15,-1652.59 1342.53,-1630.63 1381,-1586.39 1448.75,-1508.49 1433.78,-1223.22 1485,-1133.58 1490.77,-1123.48 1497.56,-1125.27 1504,-1115.58 1545.8,-1052.7 1543.95,-1029.43 1564,-956.63 1574.57,-918.25 1582.21,-873.68 1586.99,-840.94"/>
<polygon fill="black" stroke="black" points="1590.49,-841.14 1588.44,-830.75 1583.56,-840.16 1590.49,-841.14"/>
<text text-anchor="middle" x="1465" y="-1230.33" font-family="Times,serif" font-size="14.00">14</text>
</g>
<!-- node3&#45;&gt;node11 -->
<g id="edge53" class="edge">
<title>node3&#45;&gt;node11</title>
<path fill="none" stroke="black" d="M1096.41,-1647.4C1086.47,-1643.5 1076.06,-1639.95 1066,-1637.39 955.24,-1609.28 895.2,-1666.79 814,-1586.39 787.31,-1559.97 794.98,-1543.23 775,-1511.44 695.27,-1384.58 634.88,-1377.99 573,-1241.53 499.44,-1079.33 526.43,-974.97 652,-848.67 716.25,-784.05 807.65,-731.19 869.25,-699.75"/>
<polygon fill="black" stroke="black" points="871.15,-702.71 878.5,-695.08 867.99,-696.47 871.15,-702.71"/>
<text text-anchor="middle" x="563.5" y="-1167.36" font-family="Times,serif" font-size="14.00">6</text>
</g>
<!-- node3&#45;&gt;node12 -->
<g id="edge54" class="edge">
<title>node3&#45;&gt;node12</title>
<path fill="none" stroke="black" d="M1200.09,-1644.45C1210.28,-1637 1220.52,-1628.5 1229,-1619.39 1240.69,-1606.84 1241.87,-1601.99 1249,-1586.39 1418.07,-1216.37 1422.61,-1105.05 1495,-704.72 1502,-666.02 1506.98,-621.65 1510.09,-589.07"/>
<polygon fill="black" stroke="black" points="1513.59,-589.21 1511.03,-578.93 1506.62,-588.56 1513.59,-589.21"/>
<text text-anchor="middle" x="1425.5" y="-1104.38" font-family="Times,serif" font-size="14.00">7</text>
</g>
<!-- node3&#45;&gt;node13 -->
<g id="edge55" class="edge">
<title>node3&#45;&gt;node13</title>
<path fill="none" stroke="black" d="M1096.92,-1647.42C1086.83,-1643.47 1076.24,-1639.89 1066,-1637.39 964.22,-1612.62 930.93,-1650.8 831,-1619.39 803.44,-1610.73 794.77,-1607.46 775,-1586.39 749.44,-1559.16 760.59,-1540.4 737,-1511.44 714.03,-1483.24 701.06,-1483.59 673,-1460.44 540.01,-1350.72 473.31,-1352.2 378,-1208.53 345.53,-1159.59 346.99,-1140.62 338,-1082.58 332.9,-1049.66 328.45,-1039.54 338,-1007.63 376.39,-879.29 582.9,-606.44 669,-503.81 682.74,-487.43 685.54,-481.6 704,-470.81 732.14,-454.37 765.77,-442.36 796,-433.88"/>
<polygon fill="black" stroke="black" points="796.95,-437.25 805.68,-431.24 795.11,-430.49 796.95,-437.25"/>
<text text-anchor="middle" x="341.5" y="-1041.4" font-family="Times,serif" font-size="14.00">9</text>
</g>
<!-- node3&#45;&gt;node14 -->
<g id="edge56" class="edge">
<title>node3&#45;&gt;node14</title>
<path fill="none" stroke="black" d="M1223.79,-1657.69C1309.66,-1637.7 1443.91,-1604.16 1460,-1586.39 1527.26,-1512.11 1490.33,-1464.86 1514,-1367.49 1539.25,-1263.61 1527.43,-1231.63 1570,-1133.58 1607.55,-1047.1 1645.91,-1041.48 1687,-956.63 1734.41,-858.73 1761.36,-831.47 1759,-722.72 1755.67,-569.34 1758.85,-530.56 1744,-377.86 1742.56,-363.1 1743.35,-359.04 1739,-344.86 1738.05,-341.75 1736.94,-338.6 1735.74,-335.46"/>
<polygon fill="black" stroke="black" points="1738.93,-334.03 1731.88,-326.12 1732.46,-336.7 1738.93,-334.03"/>
<text text-anchor="middle" x="1685" y="-978.43" font-family="Times,serif" font-size="14.00">13</text>
</g>
<!-- node3&#45;&gt;node15 -->
<g id="edge57" class="edge">
<title>node3&#45;&gt;node15</title>
<path fill="none" stroke="black" d="M1096.94,-1647.32C1086.85,-1643.38 1076.26,-1639.83 1066,-1637.39 947.27,-1609.17 912.18,-1640.6 792,-1619.39 779.69,-1617.22 367.87,-1503.15 360,-1493.44 223.75,-1325.37 314.22,-1223.48 329,-1007.63 354.15,-640.37 341.06,-421.09 668,-251.91 743.6,-212.78 980.33,-185.1 1111.06,-172.34"/>
<polygon fill="black" stroke="black" points="1111.44,-175.82 1121.06,-171.38 1110.77,-168.86 1111.44,-175.82"/>
<text text-anchor="middle" x="340.5" y="-915.45" font-family="Times,serif" font-size="14.00">6</text>
</g>
<!-- node3&#45;&gt;node16 -->
<g id="edge58" class="edge">
<title>node3&#45;&gt;node16</title>
<path fill="none" stroke="black" d="M1096.93,-1647.4C1086.83,-1643.45 1076.25,-1639.87 1066,-1637.39 1048.21,-1633.09 424.2,-1596.59 409,-1586.39 377.98,-1565.6 395.75,-1539.41 371,-1511.44 367.63,-1507.63 298.74,-1463.89 295,-1460.44 256.17,-1424.65 243.76,-1415.14 221,-1367.49 158.67,-1236.97 84,-875.85 84,-731.22 84,-731.22 84,-731.22 84,-162.43 84,-50.17 920.21,-38.91 1201.18,-38.29"/>
<polygon fill="black" stroke="black" points="1201.34,-41.79 1211.33,-38.27 1201.33,-34.79 1201.34,-41.79"/>
<text text-anchor="middle" x="103" y="-852.47" font-family="Times,serif" font-size="14.00">16</text>
</g>
<!-- node4&#45;&gt;node5 -->
<g id="edge59" class="edge">
<title>node4&#45;&gt;node5</title>
<path fill="none" stroke="black" d="M1730.4,-1536.9C1667.36,-1527.26 1575.88,-1511.91 1497,-1493.44 1474,-1488.05 1469.24,-1482.72 1446,-1478.44 1345.16,-1459.87 1317.17,-1477.09 1216,-1460.44 1193.06,-1456.66 1168.41,-1451.02 1146.11,-1445.3"/>
<polygon fill="black" stroke="black" points="1146.94,-1441.9 1136.38,-1442.76 1145.17,-1448.67 1146.94,-1441.9"/>
<text text-anchor="middle" x="1500.5" y="-1482.24" font-family="Times,serif" font-size="14.00">6</text>
</g>
<!-- node4&#45;&gt;node6 -->
<g id="edge60" class="edge">
<title>node4&#45;&gt;node6</title>
<path fill="none" stroke="black" d="M1728.56,-1539.75C1523.03,-1518.34 984.36,-1462.11 980,-1460.44 908.44,-1432.98 839.06,-1376.64 796.94,-1338.1"/>
<polygon fill="black" stroke="black" points="799.12,-1335.34 789.4,-1331.12 794.36,-1340.48 799.12,-1335.34"/>
<text text-anchor="middle" x="983.5" y="-1419.26" font-family="Times,serif" font-size="14.00">9</text>
</g>
<!-- node4&#45;&gt;node7 -->
<g id="edge61" class="edge">
<title>node4&#45;&gt;node7</title>
<path fill="none" stroke="black" d="M1739.08,-1528.56C1714.86,-1519.92 1688.11,-1508.29 1666,-1493.44 1602.06,-1450.51 1591.59,-1430.28 1547,-1367.49 1506.16,-1309.96 1532.06,-1266.62 1474,-1226.53 1445.46,-1206.83 1352.43,-1217.76 1319,-1208.53 1312.61,-1206.77 1306.08,-1204.57 1299.64,-1202.13"/>
<polygon fill="black" stroke="black" points="1300.87,-1198.85 1290.29,-1198.4 1298.28,-1205.35 1300.87,-1198.85"/>
<text text-anchor="middle" x="1550.5" y="-1356.29" font-family="Times,serif" font-size="14.00">4</text>
</g>
<!-- node4&#45;&gt;node8 -->
<g id="edge62" class="edge">
<title>node4&#45;&gt;node8</title>
<path fill="none" stroke="black" d="M1787.11,-1512.31C1784.33,-1506.17 1781.81,-1499.73 1780,-1493.44 1735.54,-1339.27 1729.58,-1292.6 1751,-1133.58 1752.84,-1119.9 1756.24,-1105.33 1759.9,-1092.09"/>
<polygon fill="black" stroke="black" points="1763.33,-1092.83 1762.74,-1082.25 1756.61,-1090.89 1763.33,-1092.83"/>
<text text-anchor="middle" x="1746.5" y="-1293.31" font-family="Times,serif" font-size="14.00">8</text>
</g>
<!-- node4&#45;&gt;node9 -->
<g id="edge63" class="edge">
<title>node4&#45;&gt;node9</title>
<path fill="none" stroke="black" d="M1783.45,-1512.98C1712.65,-1408 1506.49,-1102.43 1504,-1100.58 1487.46,-1088.28 1169.58,-996.08 1150,-989.63 1106.52,-975.3 1058.01,-958.55 1019.53,-945.09"/>
<polygon fill="black" stroke="black" points="1020.57,-941.75 1009.98,-941.74 1018.26,-948.35 1020.57,-941.75"/>
<text text-anchor="middle" x="1603.5" y="-1230.33" font-family="Times,serif" font-size="14.00">9</text>
</g>
<!-- node4&#45;&gt;node10 -->
<g id="edge64" class="edge">
<title>node4&#45;&gt;node10</title>
<path fill="none" stroke="black" d="M1808.35,-1511.44C1810.05,-1472.11 1813.58,-1407.71 1820,-1352.49 1837.86,-1198.95 1944.05,-1140.45 1865,-1007.63 1840.69,-966.78 1809.22,-984.88 1771,-956.63 1715.92,-915.91 1712.24,-894.13 1661,-848.67 1654.95,-843.31 1648.47,-837.81 1641.99,-832.47"/>
<polygon fill="black" stroke="black" points="1643.79,-829.41 1633.82,-825.8 1639.36,-834.84 1643.79,-829.41"/>
<text text-anchor="middle" x="1898" y="-1167.36" font-family="Times,serif" font-size="14.00">13</text>
</g>
<!-- node4&#45;&gt;node11 -->
<g id="edge65" class="edge">
<title>node4&#45;&gt;node11</title>
<path fill="none" stroke="black" d="M1817.87,-1511.78C1827.77,-1478.86 1842.83,-1428.89 1856,-1385.49 1910.01,-1207.47 2015.41,-1142.86 1936,-974.63 1898.4,-894.98 1857.82,-895.14 1783,-848.67 1766.44,-838.39 1758.41,-842.62 1743,-830.67 1709.27,-804.53 1720.37,-776.32 1683,-755.72 1594.09,-706.71 1329.82,-716.66 1229,-704.72 1161.65,-696.74 1085.65,-687.27 1027.94,-679.98"/>
<polygon fill="black" stroke="black" points="1028.11,-676.47 1017.75,-678.69 1027.23,-683.41 1028.11,-676.47"/>
<text text-anchor="middle" x="1968.5" y="-1104.38" font-family="Times,serif" font-size="14.00">4</text>
</g>
<!-- node4&#45;&gt;node12 -->
<g id="edge66" class="edge">
<title>node4&#45;&gt;node12</title>
<path fill="none" stroke="black" d="M1828.71,-1512.59C1832.52,-1506.25 1836.41,-1499.67 1840,-1493.44 1853.64,-1469.75 1878.13,-1403.15 1899,-1385.49 1925.39,-1363.15 2025.73,-1362.5 2046,-1334.49 2088.58,-1275.64 2066.24,-1078.43 2050,-1007.63 1996.32,-773.62 1713.91,-626.28 1582,-569.22"/>
<polygon fill="black" stroke="black" points="1583.34,-565.99 1572.77,-565.27 1580.58,-572.42 1583.34,-565.99"/>
<text text-anchor="middle" x="2066.5" y="-1041.4" font-family="Times,serif" font-size="14.00">6</text>
</g>
<!-- node4&#45;&gt;node13 -->
<g id="edge67" class="edge">
<title>node4&#45;&gt;node13</title>
<path fill="none" stroke="black" d="M1860.58,-1520.9C1941.78,-1476.13 2090.84,-1377.8 2131,-1241.53 2159.6,-1144.48 1977.38,-669.11 1946,-629.77 1879.32,-546.16 1841.17,-541.25 1741,-503.81 1551.18,-432.87 1041.76,-466.49 974,-452.81 964.75,-450.95 955.22,-448.27 945.93,-445.2"/>
<polygon fill="black" stroke="black" points="946.95,-441.85 936.36,-441.88 944.66,-448.47 946.95,-441.85"/>
<text text-anchor="middle" x="2089.5" y="-978.43" font-family="Times,serif" font-size="14.00">8</text>
</g>
<!-- node4&#45;&gt;node14 -->
<g id="edge68" class="edge">
<title>node4&#45;&gt;node14</title>
<path fill="none" stroke="black" d="M1887.47,-1545.9C1938.51,-1541 2003.61,-1527.72 2051,-1493.44 2170.47,-1407.02 2159.7,-1342.64 2221,-1208.53 2294.54,-1047.65 2317.86,-1005.31 2346,-830.67 2351.3,-797.78 2350.13,-788.78 2346,-755.72 2338.83,-698.41 2319.01,-548.15 2282,-503.81 2268.38,-487.5 1954.42,-350.74 1934,-344.86 1875.83,-328.1 1857.39,-342.82 1799,-326.86 1792.12,-324.98 1785.06,-322.67 1778.09,-320.13"/>
<polygon fill="black" stroke="black" points="1779.26,-316.83 1768.67,-316.54 1776.77,-323.37 1779.26,-316.83"/>
<text text-anchor="middle" x="2344" y="-915.45" font-family="Times,serif" font-size="14.00">12</text>
</g>
<!-- node4&#45;&gt;node15 -->
<g id="edge69" class="edge">
<title>node4&#45;&gt;node15</title>
<path fill="none" stroke="black" d="M1887.61,-1547.36C1961.25,-1542.52 2068.5,-1523.93 2135,-1460.44 2199.98,-1398.4 2319.21,-1201.33 2346,-1115.58 2399.13,-945.53 2390.62,-504.83 2378,-470.81 2364.29,-433.86 2201.92,-239.54 2158,-218.91 2127.57,-204.61 1586.55,-203.14 1553,-200.91 1462.33,-194.88 1358.96,-183.69 1287.62,-175.29"/>
<polygon fill="black" stroke="black" points="1287.68,-171.77 1277.33,-174.07 1286.85,-178.72 1287.68,-171.77"/>
<text text-anchor="middle" x="2385.5" y="-852.47" font-family="Times,serif" font-size="14.00">8</text>
</g>
<!-- node4&#45;&gt;node16 -->
<g id="edge70" class="edge">
<title>node4&#45;&gt;node16</title>
<path fill="none" stroke="black" d="M1885.74,-1540.86C1949.41,-1533.55 2040.7,-1519.42 2117,-1493.44 2146.92,-1483.25 2156.27,-1481.32 2180,-1460.44 2278.85,-1373.43 2285,-1329.95 2336,-1208.53 2441.61,-957.11 2448,-877.97 2448,-605.27 2448,-605.27 2448,-605.27 2448,-162.43 2448,-55.5 1655.97,-40.66 1383.09,-38.73"/>
<polygon fill="black" stroke="black" points="1382.85,-35.22 1372.83,-38.66 1382.8,-42.22 1382.85,-35.22"/>
<text text-anchor="middle" x="2453" y="-789.5" font-family="Times,serif" font-size="14.00">14</text>
</g>
<!-- node5&#45;&gt;node6 -->
<g id="edge71" class="edge">
<title>node5&#45;&gt;node6</title>
<path fill="none" stroke="black" d="M1008.37,-1402.39C978.02,-1392.62 941.35,-1380.2 909,-1367.49 879.49,-1355.89 847.46,-1341.62 820.37,-1329.03"/>
<polygon fill="black" stroke="black" points="821.54,-1325.72 811,-1324.66 818.58,-1332.06 821.54,-1325.72"/>
<text text-anchor="middle" x="912.5" y="-1356.29" font-family="Times,serif" font-size="14.00">2</text>
</g>
<!-- node5&#45;&gt;node7 -->
<g id="edge72" class="edge">
<title>node5&#45;&gt;node7</title>
<path fill="none" stroke="black" d="M1130.37,-1399.03C1145.24,-1390.91 1160.08,-1380.48 1171,-1367.49 1180.89,-1355.73 1207.55,-1272.17 1224.11,-1218.18"/>
<polygon fill="black" stroke="black" points="1227.5,-1219.06 1227.07,-1208.47 1220.8,-1217.01 1227.5,-1219.06"/>
<text text-anchor="middle" x="1215.5" y="-1293.31" font-family="Times,serif" font-size="14.00">3</text>
</g>
<!-- node5&#45;&gt;node8 -->
<g id="edge73" class="edge">
<title>node5&#45;&gt;node8</title>
<path fill="none" stroke="black" d="M1137.73,-1404.33C1162.22,-1398.03 1190.3,-1391.1 1216,-1385.49 1259.27,-1376.04 1272.44,-1382.79 1314,-1367.49 1446.47,-1318.7 1481.78,-1300.37 1589,-1208.53 1635.8,-1168.45 1628.78,-1140.17 1676,-1100.58 1686.24,-1091.99 1698.05,-1084.12 1709.85,-1077.18"/>
<polygon fill="black" stroke="black" points="1711.89,-1080.05 1718.86,-1072.07 1708.43,-1073.96 1711.89,-1080.05"/>
<text text-anchor="middle" x="1571.5" y="-1230.33" font-family="Times,serif" font-size="14.00">2</text>
</g>
<!-- node5&#45;&gt;node9 -->
<g id="edge74" class="edge">
<title>node5&#45;&gt;node9</title>
<path fill="none" stroke="black" d="M1058.78,-1385.8C1056.73,-1379.72 1054.73,-1373.45 1053,-1367.49 1011.13,-1222.99 974.49,-1048.49 958.11,-966.71"/>
<polygon fill="black" stroke="black" points="961.51,-965.85 956.12,-956.73 954.64,-967.22 961.51,-965.85"/>
<text text-anchor="middle" x="1014.5" y="-1167.36" font-family="Times,serif" font-size="14.00">2</text>
</g>
<!-- node5&#45;&gt;node10 -->
<g id="edge75" class="edge">
<title>node5&#45;&gt;node10</title>
<path fill="none" stroke="black" d="M1129.56,-1398.56C1203.32,-1365.95 1330.96,-1300.35 1409,-1208.53 1443.74,-1167.66 1432.25,-1144.54 1463,-1100.58 1469.31,-1091.56 1474.11,-1091.87 1480,-1082.58 1506.51,-1040.78 1553.33,-909.97 1577.54,-839.78"/>
<polygon fill="black" stroke="black" points="1580.86,-840.89 1580.8,-830.29 1574.24,-838.61 1580.86,-840.89"/>
<text text-anchor="middle" x="1466.5" y="-1104.38" font-family="Times,serif" font-size="14.00">6</text>
</g>
<!-- node5&#45;&gt;node11 -->
<g id="edge76" class="edge">
<title>node5&#45;&gt;node11</title>
<path fill="none" stroke="black" d="M1045.75,-1387.77C984.48,-1307.97 837.17,-1116.08 837,-1115.58 788.27,-971.97 867.03,-794.16 910.41,-712.74"/>
<polygon fill="black" stroke="black" points="913.59,-714.22 915.26,-703.76 907.43,-710.89 913.59,-714.22"/>
<text text-anchor="middle" x="831.5" y="-1041.4" font-family="Times,serif" font-size="14.00">9</text>
</g>
<!-- node5&#45;&gt;node12 -->
<g id="edge77" class="edge">
<title>node5&#45;&gt;node12</title>
<path fill="none" stroke="black" d="M1113.32,-1391.33C1120.3,-1384.27 1126.67,-1376.23 1131,-1367.49 1177.31,-1273.9 1132.93,-1236.05 1153,-1133.58 1164.24,-1076.2 1164.53,-1059.76 1191,-1007.63 1231.08,-928.7 1254.48,-916.8 1311,-848.67 1353.58,-797.35 1374.08,-792.57 1412,-737.72 1442.62,-693.43 1442.03,-677.48 1467,-629.77 1474.27,-615.87 1482.32,-600.79 1489.66,-587.14"/>
<polygon fill="black" stroke="black" points="1492.95,-588.41 1494.61,-577.95 1486.79,-585.09 1492.95,-588.41"/>
<text text-anchor="middle" x="1213.5" y="-978.43" font-family="Times,serif" font-size="14.00">7</text>
</g>
<!-- node5&#45;&gt;node13 -->
<g id="edge78" class="edge">
<title>node5&#45;&gt;node13</title>
<path fill="none" stroke="black" d="M1021.51,-1394.78C996.16,-1379.43 966.2,-1358.5 944,-1334.49 917.93,-1306.28 924.77,-1289.7 901,-1259.53 880.57,-1233.6 868.63,-1233.47 847,-1208.53 761.76,-1110.27 726.68,-1083.5 698,-956.63 655.11,-766.87 784.93,-549.82 847.42,-459.39"/>
<polygon fill="black" stroke="black" points="850.39,-461.24 853.25,-451.03 844.65,-457.23 850.39,-461.24"/>
<text text-anchor="middle" x="701.5" y="-915.45" font-family="Times,serif" font-size="14.00">7</text>
</g>
<!-- node5&#45;&gt;node14 -->
<g id="edge79" class="edge">
<title>node5&#45;&gt;node14</title>
<path fill="none" stroke="black" d="M1078.63,-1385.41C1079.54,-1379.44 1080.38,-1373.3 1081,-1367.49 1086.75,-1313.75 1070.84,-923.55 1105,-881.67 1125.3,-856.78 1148.01,-881.1 1175,-863.67 1235.28,-824.75 1249.59,-804.44 1276,-737.72 1299.13,-679.29 1261.37,-654.14 1287,-596.77 1314.43,-535.36 1440.33,-415.61 1496,-377.86 1538.51,-349.04 1591.96,-327.35 1635.18,-312.77"/>
<polygon fill="black" stroke="black" points="1636.4,-316.05 1644.8,-309.59 1634.2,-309.41 1636.4,-316.05"/>
<text text-anchor="middle" x="1201.5" y="-852.47" font-family="Times,serif" font-size="14.00">6</text>
</g>
<!-- node5&#45;&gt;node15 -->
<g id="edge80" class="edge">
<title>node5&#45;&gt;node15</title>
<path fill="none" stroke="black" d="M1072.24,-1385.37C1072.8,-1313.14 1074.5,-1147.12 1079,-1007.63 1080.81,-951.61 1074.01,-936.63 1085,-881.67 1101.4,-799.66 1127.05,-785.42 1149,-704.72 1175.75,-606.39 1191,-581.22 1191,-479.31 1191,-479.31 1191,-479.31 1191,-288.38 1191,-262.84 1192.92,-234.42 1194.99,-211.24"/>
<polygon fill="black" stroke="black" points="1198.51,-211.27 1195.95,-200.99 1191.54,-210.62 1198.51,-211.27"/>
<text text-anchor="middle" x="1139" y="-789.5" font-family="Times,serif" font-size="14.00">12</text>
</g>
<!-- node5&#45;&gt;node16 -->
<g id="edge81" class="edge">
<title>node5&#45;&gt;node16</title>
<path fill="none" stroke="black" d="M1019.64,-1395.89C1010.27,-1391.94 1000.47,-1388.27 991,-1385.49 939.26,-1370.27 924.29,-1375.77 871,-1367.49 679.11,-1337.65 579.71,-1364.49 464,-1208.53 380.17,-1095.55 272,-745.95 272,-605.27 272,-605.27 272,-605.27 272,-162.43 272,-90.97 347.84,-110.94 417,-92.95 563.16,-54.93 1008.52,-43.12 1201.38,-39.73"/>
<polygon fill="black" stroke="black" points="1201.55,-43.23 1211.49,-39.56 1201.43,-36.23 1201.55,-43.23"/>
<text text-anchor="middle" x="292.5" y="-726.52" font-family="Times,serif" font-size="14.00">8</text>
</g>
<!-- node6&#45;&gt;node7 -->
<g id="edge82" class="edge">
<title>node6&#45;&gt;node7</title>
<path fill="none" stroke="black" d="M815.6,-1271.62C827.23,-1267.29 839.42,-1263.05 851,-1259.53 955.3,-1227.9 1078.52,-1201.95 1157.42,-1186.75"/>
<polygon fill="black" stroke="black" points="1158.13,-1190.17 1167.29,-1184.85 1156.81,-1183.3 1158.13,-1190.17"/>
<text text-anchor="middle" x="970.5" y="-1230.33" font-family="Times,serif" font-size="14.00">6</text>
</g>
<!-- node6&#45;&gt;node8 -->
<g id="edge83" class="edge">
<title>node6&#45;&gt;node8</title>
<path fill="none" stroke="black" d="M814.28,-1270.92C826.25,-1266.54 838.89,-1262.46 851,-1259.53 953.55,-1234.75 1220.19,-1232.21 1323,-1208.53 1397.54,-1191.37 1597.38,-1115.38 1704.65,-1073.7"/>
<polygon fill="black" stroke="black" points="1706.05,-1076.91 1714.1,-1070.02 1703.52,-1070.39 1706.05,-1076.91"/>
<text text-anchor="middle" x="1544.5" y="-1167.36" font-family="Times,serif" font-size="14.00">2</text>
</g>
<!-- node6&#45;&gt;node9 -->
<g id="edge84" class="edge">
<title>node6&#45;&gt;node9</title>
<path fill="none" stroke="black" d="M779.84,-1261.16C783.8,-1254.76 787.68,-1248.04 791,-1241.53 841.62,-1142.13 827.32,-1104.85 882,-1007.63 890.86,-991.88 902.3,-975.84 913.22,-961.87"/>
<polygon fill="black" stroke="black" points="916.07,-963.91 919.56,-953.9 910.59,-959.55 916.07,-963.91"/>
<text text-anchor="middle" x="845.5" y="-1104.38" font-family="Times,serif" font-size="14.00">5</text>
</g>
<!-- node6&#45;&gt;node10 -->
<g id="edge85" class="edge">
<title>node6&#45;&gt;node10</title>
<path fill="none" stroke="black" d="M788.68,-1262.75C795.44,-1255.78 802.48,-1248.44 809,-1241.53 905.69,-1139.05 897.48,-1071.64 1023,-1007.63 1085.96,-975.52 1113.46,-1010.46 1181,-989.63 1295.73,-954.23 1313.97,-920.01 1420,-863.67 1432.47,-857.05 1435.14,-854.5 1448,-848.67 1470.93,-838.28 1496.47,-828.21 1519.66,-819.6"/>
<polygon fill="black" stroke="black" points="1520.91,-822.87 1529.09,-816.14 1518.5,-816.3 1520.91,-822.87"/>
<text text-anchor="middle" x="1026.5" y="-1041.4" font-family="Times,serif" font-size="14.00">4</text>
</g>
<!-- node6&#45;&gt;node11 -->
<g id="edge86" class="edge">
<title>node6&#45;&gt;node11</title>
<path fill="none" stroke="black" d="M755.02,-1259.37C754.19,-1199.18 755.74,-1075.95 778,-974.63 803.71,-857.6 805.66,-821.13 874,-722.72 877.79,-717.26 882.24,-712 886.99,-707.03"/>
<polygon fill="black" stroke="black" points="889.46,-709.5 894.11,-699.98 884.54,-704.53 889.46,-709.5"/>
<text text-anchor="middle" x="785" y="-978.43" font-family="Times,serif" font-size="14.00">12</text>
</g>
<!-- node6&#45;&gt;node12 -->
<g id="edge87" class="edge">
<title>node6&#45;&gt;node12</title>
<path fill="none" stroke="black" d="M740.22,-1259.89C722.96,-1218.14 696.49,-1146.92 687,-1082.58 682.14,-1049.62 680.59,-1040.32 687,-1007.63 689.18,-996.5 832.02,-636.68 841,-629.77 864.13,-611.94 1255.15,-569.25 1430.31,-550.91"/>
<polygon fill="black" stroke="black" points="1430.68,-554.39 1440.26,-549.87 1429.95,-547.43 1430.68,-554.39"/>
<text text-anchor="middle" x="743" y="-915.45" font-family="Times,serif" font-size="14.00">10</text>
</g>
<!-- node6&#45;&gt;node13 -->
<g id="edge88" class="edge">
<title>node6&#45;&gt;node13</title>
<path fill="none" stroke="black" d="M726.01,-1262.17C714.07,-1246.82 701.42,-1227.82 694,-1208.53 616.34,-1006.85 650.1,-937.62 673,-722.72 685.06,-609.55 644.67,-557 719,-470.81 737.43,-449.44 764.6,-436.44 791.34,-428.53"/>
<polygon fill="black" stroke="black" points="792.43,-431.86 801.15,-425.84 790.59,-425.11 792.43,-431.86"/>
<text text-anchor="middle" x="665" y="-852.47" font-family="Times,serif" font-size="14.00">10</text>
</g>
<!-- node6&#45;&gt;node14 -->
<g id="edge89" class="edge">
<title>node6&#45;&gt;node14</title>
<path fill="none" stroke="black" d="M702.06,-1268.82C652.6,-1242.05 587,-1201.07 587,-1172.06 587,-1172.06 587,-1172.06 587,-855.17 587,-684.16 512.01,-614.34 605,-470.81 654.82,-393.92 701.34,-404.49 789,-377.86 1094.25,-285.13 1187.79,-360.91 1505,-326.86 1546.49,-322.41 1592.21,-314.7 1630.19,-307.52"/>
<polygon fill="black" stroke="black" points="1631.02,-310.92 1640.18,-305.61 1629.7,-304.05 1631.02,-310.92"/>
<text text-anchor="middle" x="590.5" y="-789.5" font-family="Times,serif" font-size="14.00">6</text>
</g>
<!-- node6&#45;&gt;node15 -->
<g id="edge90" class="edge">
<title>node6&#45;&gt;node15</title>
<path fill="none" stroke="black" d="M694.92,-1272.39C629.65,-1247.08 535.29,-1210.27 534,-1208.53 457.4,-1104.86 466.58,-755.5 495,-629.77 522.34,-508.8 528.49,-466.71 615,-377.86 723.57,-266.36 779.98,-269.94 927,-218.91 987.39,-197.95 1058.25,-184.1 1112.65,-175.62"/>
<polygon fill="black" stroke="black" points="1113.25,-179.07 1122.61,-174.09 1112.19,-172.15 1113.25,-179.07"/>
<text text-anchor="middle" x="489" y="-726.52" font-family="Times,serif" font-size="14.00">15</text>
</g>
<!-- node6&#45;&gt;node16 -->
<g id="edge91" class="edge">
<title>node6&#45;&gt;node16</title>
<path fill="none" stroke="black" d="M696.71,-1271.55C684.99,-1267.2 672.7,-1262.96 661,-1259.53 588.16,-1238.17 544.73,-1268.35 498,-1208.53 423.58,-1113.27 316.62,-222.02 390,-125.95 438.68,-62.22 981.97,-44.52 1201.14,-39.95"/>
<polygon fill="black" stroke="black" points="1201.4,-43.45 1211.33,-39.75 1201.26,-36.45 1201.4,-43.45"/>
<text text-anchor="middle" x="396.5" y="-663.54" font-family="Times,serif" font-size="14.00">5</text>
</g>
<!-- node7&#45;&gt;node8 -->
<g id="edge92" class="edge">
<title>node7&#45;&gt;node8</title>
<path fill="none" stroke="black" d="M1292.93,-1145.2C1304.34,-1140.77 1316.42,-1136.62 1328,-1133.58 1388.68,-1117.67 1408.74,-1136.15 1468,-1115.58 1480.24,-1111.33 1480.9,-1105.21 1493,-1100.58 1555.38,-1076.7 1629.69,-1062.89 1686.37,-1055.16"/>
<polygon fill="black" stroke="black" points="1686.93,-1058.62 1696.38,-1053.83 1686.01,-1051.68 1686.93,-1058.62"/>
<text text-anchor="middle" x="1496.5" y="-1104.38" font-family="Times,serif" font-size="14.00">4</text>
</g>
<!-- node7&#45;&gt;node9 -->
<g id="edge93" class="edge">
<title>node7&#45;&gt;node9</title>
<path fill="none" stroke="black" d="M1192.39,-1140.86C1168.09,-1124.64 1138.11,-1103.54 1113,-1082.58 1066.95,-1044.14 1018.69,-995.12 986.54,-961.04"/>
<polygon fill="black" stroke="black" points="988.93,-958.47 979.53,-953.57 983.82,-963.26 988.93,-958.47"/>
<text text-anchor="middle" x="1116.5" y="-1041.4" font-family="Times,serif" font-size="14.00">4</text>
</g>
<!-- node7&#45;&gt;node10 -->
<g id="edge94" class="edge">
<title>node7&#45;&gt;node10</title>
<path fill="none" stroke="black" d="M1290.9,-1144.11C1300.13,-1140.2 1309.74,-1136.51 1319,-1133.58 1359.56,-1120.76 1379.42,-1141.69 1413,-1115.58 1516.4,-1035.16 1462.52,-955.73 1538,-848.67 1541.42,-843.82 1545.3,-839.02 1549.38,-834.39"/>
<polygon fill="black" stroke="black" points="1552.18,-836.52 1556.39,-826.8 1547.03,-831.78 1552.18,-836.52"/>
<text text-anchor="middle" x="1493.5" y="-978.43" font-family="Times,serif" font-size="14.00">8</text>
</g>
<!-- node7&#45;&gt;node11 -->
<g id="edge95" class="edge">
<title>node7&#45;&gt;node11</title>
<path fill="none" stroke="black" d="M1216.33,-1135.01C1178.41,-1073.58 1097.71,-942.36 1031,-830.67 1007.26,-790.94 980.7,-745.43 961.71,-712.72"/>
<polygon fill="black" stroke="black" points="964.61,-710.74 956.57,-703.84 958.56,-714.25 964.61,-710.74"/>
<text text-anchor="middle" x="1109.5" y="-915.45" font-family="Times,serif" font-size="14.00">5</text>
</g>
<!-- node7&#45;&gt;node12 -->
<g id="edge96" class="edge">
<title>node7&#45;&gt;node12</title>
<path fill="none" stroke="black" d="M1293.31,-1145.18C1324.45,-1131.13 1357.3,-1116.23 1358,-1115.58 1370.24,-1104.21 1370.01,-1098.17 1376,-1082.58 1408.94,-996.89 1401.57,-970.69 1424,-881.67 1450.44,-776.75 1483.48,-654.17 1501.26,-588.85"/>
<polygon fill="black" stroke="black" points="1504.73,-589.44 1503.98,-578.87 1497.98,-587.6 1504.73,-589.44"/>
<text text-anchor="middle" x="1436.5" y="-852.47" font-family="Times,serif" font-size="14.00">4</text>
</g>
<!-- node7&#45;&gt;node13 -->
<g id="edge97" class="edge">
<title>node7&#45;&gt;node13</title>
<path fill="none" stroke="black" d="M1229.36,-1133.56C1219.61,-1093.93 1202.54,-1029.03 1183,-974.63 1126.39,-816.98 1113.79,-775.37 1031,-629.77 995.48,-567.3 945.92,-500.66 913.17,-458.78"/>
<polygon fill="black" stroke="black" points="915.79,-456.44 906.86,-450.74 910.28,-460.77 915.79,-456.44"/>
<text text-anchor="middle" x="1133.5" y="-789.5" font-family="Times,serif" font-size="14.00">3</text>
</g>
<!-- node7&#45;&gt;node14 -->
<g id="edge98" class="edge">
<title>node7&#45;&gt;node14</title>
<path fill="none" stroke="black" d="M1296.21,-1146.75C1310.05,-1138.73 1323.53,-1128.44 1333,-1115.58 1366.99,-1069.39 1354.34,-1046.58 1361,-989.63 1368.28,-927.4 1356.64,-911 1363,-848.67 1370.92,-771.05 1384.32,-567.78 1429,-503.81 1437.9,-491.07 1446.46,-495 1459,-485.81 1517.4,-443.02 1523.57,-421.95 1581,-377.86 1604.98,-359.44 1632.73,-340.7 1656.57,-325.32"/>
<polygon fill="black" stroke="black" points="1658.63,-328.15 1665.16,-319.81 1654.86,-322.26 1658.63,-328.15"/>
<text text-anchor="middle" x="1379.5" y="-726.52" font-family="Times,serif" font-size="14.00">7</text>
</g>
<!-- node7&#45;&gt;node15 -->
<g id="edge99" class="edge">
<title>node7&#45;&gt;node15</title>
<path fill="none" stroke="black" d="M1237.62,-1133.28C1237.47,-1122.72 1237.27,-1111.19 1237,-1100.58 1227.07,-708.59 1230.04,-610.22 1205,-218.91 1204.84,-216.38 1204.66,-213.78 1204.46,-211.17"/>
<polygon fill="black" stroke="black" points="1207.93,-210.72 1203.64,-201.04 1200.96,-211.29 1207.93,-210.72"/>
<text text-anchor="middle" x="1231.5" y="-663.54" font-family="Times,serif" font-size="14.00">8</text>
</g>
<!-- node7&#45;&gt;node16 -->
<g id="edge100" class="edge">
<title>node7&#45;&gt;node16</title>
<path fill="none" stroke="black" d="M1250.76,-1133.9C1281.16,-1043.99 1354.55,-802.73 1344,-596.77 1338.44,-488.16 1319,-462.11 1319,-353.36 1319,-353.36 1319,-353.36 1319,-162.43 1319,-136.24 1313.18,-107.64 1306.94,-84.52"/>
<polygon fill="black" stroke="black" points="1310.23,-83.32 1304.16,-74.64 1303.5,-85.21 1310.23,-83.32"/>
<text text-anchor="middle" x="1352" y="-600.57" font-family="Times,serif" font-size="14.00">10</text>
</g>
<!-- node8&#45;&gt;node9 -->
<g id="edge101" class="edge">
<title>node8&#45;&gt;node9</title>
<path fill="none" stroke="black" d="M1700.2,-1030.71C1612.14,-1015.34 1461.34,-990.23 1331,-974.63 1235.35,-963.17 1210.26,-971 1115,-956.63 1085.64,-952.2 1053.7,-945.61 1025.76,-939.25"/>
<polygon fill="black" stroke="black" points="1026.19,-935.76 1015.66,-936.92 1024.62,-942.58 1026.19,-935.76"/>
<text text-anchor="middle" x="1444.5" y="-978.43" font-family="Times,serif" font-size="14.00">3</text>
</g>
<!-- node8&#45;&gt;node10 -->
<g id="edge102" class="edge">
<title>node8&#45;&gt;node10</title>
<path fill="none" stroke="black" d="M1724.36,-1015.94C1713.97,-1008.42 1703.83,-999.58 1696,-989.63 1654.53,-936.9 1677.02,-905.89 1642,-848.67 1639.29,-844.24 1636.2,-839.84 1632.91,-835.57"/>
<polygon fill="black" stroke="black" points="1635.43,-833.11 1626.41,-827.54 1629.99,-837.52 1635.43,-833.11"/>
<text text-anchor="middle" x="1679.5" y="-915.45" font-family="Times,serif" font-size="14.00">4</text>
</g>
<!-- node8&#45;&gt;node11 -->
<g id="edge103" class="edge">
<title>node8&#45;&gt;node11</title>
<path fill="none" stroke="black" d="M1696.21,-1037.04C1623.31,-1029.11 1521.59,-1014.04 1490,-989.63 1435.12,-947.21 1473.59,-896.12 1423,-848.67 1392.07,-819.67 1143.67,-735.88 1014.08,-693.47"/>
<polygon fill="black" stroke="black" points="1014.79,-690.02 1004.2,-690.24 1012.62,-696.67 1014.79,-690.02"/>
<text text-anchor="middle" x="1439.5" y="-852.47" font-family="Times,serif" font-size="14.00">9</text>
</g>
<!-- node8&#45;&gt;node12 -->
<g id="edge104" class="edge">
<title>node8&#45;&gt;node12</title>
<path fill="none" stroke="black" d="M1767.75,-1007.37C1755.64,-950.89 1728.08,-840.38 1683,-755.72 1647.76,-689.54 1591.31,-623.43 1553.46,-582.71"/>
<polygon fill="black" stroke="black" points="1556.01,-580.31 1546.62,-575.41 1550.9,-585.1 1556.01,-580.31"/>
<text text-anchor="middle" x="1719.5" y="-789.5" font-family="Times,serif" font-size="14.00">8</text>
</g>
<!-- node8&#45;&gt;node13 -->
<g id="edge105" class="edge">
<title>node8&#45;&gt;node13</title>
<path fill="none" stroke="black" d="M1776.79,-1007.62C1779.53,-905.57 1771.19,-617.22 1599,-503.81 1482.62,-427.17 1109.96,-483.39 974,-452.81 964.85,-450.76 955.42,-447.98 946.2,-444.88"/>
<polygon fill="black" stroke="black" points="947.3,-441.56 936.7,-441.55 944.98,-448.16 947.3,-441.56"/>
<text text-anchor="middle" x="1751.5" y="-726.52" font-family="Times,serif" font-size="14.00">7</text>
</g>
<!-- node8&#45;&gt;node14 -->
<g id="edge106" class="edge">
<title>node8&#45;&gt;node14</title>
<path fill="none" stroke="black" d="M1812.94,-1012.01C1857.2,-972.93 1930.26,-903.12 1977,-830.67 2026.61,-753.78 2026.59,-721.16 2022,-629.77 2018.44,-558.85 2032.39,-536.73 2006,-470.81 1979.64,-404.97 1968.96,-381.12 1908,-344.86 1865.8,-319.76 1846.16,-340.54 1799,-326.86 1792.41,-324.95 1785.64,-322.67 1778.95,-320.2"/>
<polygon fill="black" stroke="black" points="1779.8,-316.78 1769.21,-316.47 1777.29,-323.31 1779.8,-316.78"/>
<text text-anchor="middle" x="2027.5" y="-663.54" font-family="Times,serif" font-size="14.00">3</text>
</g>
<!-- node8&#45;&gt;node15 -->
<g id="edge107" class="edge">
<title>node8&#45;&gt;node15</title>
<path fill="none" stroke="black" d="M1844.74,-1026.04C1931.58,-999.42 2076.35,-940.49 2141,-830.67 2175.48,-772.1 2188.58,-265.4 2139,-218.91 2115.24,-196.63 1585.5,-203.08 1553,-200.91 1462.33,-194.84 1358.96,-183.65 1287.62,-175.26"/>
<polygon fill="black" stroke="black" points="1287.68,-171.74 1277.33,-174.05 1286.85,-178.7 1287.68,-171.74"/>
<text text-anchor="middle" x="2177" y="-600.57" font-family="Times,serif" font-size="14.00">13</text>
</g>
<!-- node8&#45;&gt;node16 -->
<g id="edge108" class="edge">
<title>node8&#45;&gt;node16</title>
<path fill="none" stroke="black" d="M1853.09,-1035.3C1916.26,-1024.99 2004.93,-1002.98 2069,-956.63 2245.71,-828.79 2360,-382.06 2360,-353.36 2360,-353.36 2360,-353.36 2360,-162.43 2360,-64.4 1640.86,-43.79 1382.8,-39.55"/>
<polygon fill="black" stroke="black" points="1382.77,-36.05 1372.71,-39.39 1382.65,-43.05 1382.77,-36.05"/>
<text text-anchor="middle" x="2323.5" y="-537.59" font-family="Times,serif" font-size="14.00">6</text>
</g>
<!-- node9&#45;&gt;node10 -->
<g id="edge109" class="edge">
<title>node9&#45;&gt;node10</title>
<path fill="none" stroke="black" d="M1016.12,-901.66C1046.21,-894.71 1082.24,-887.02 1115,-881.67 1188.68,-869.64 1208.34,-875.83 1282,-863.67 1361.4,-850.57 1450.99,-829.92 1513.54,-814.54"/>
<polygon fill="black" stroke="black" points="1514.47,-817.91 1523.34,-812.12 1512.8,-811.12 1514.47,-817.91"/>
<text text-anchor="middle" x="1363.5" y="-852.47" font-family="Times,serif" font-size="14.00">4</text>
</g>
<!-- node9&#45;&gt;node11 -->
<g id="edge110" class="edge">
<title>node9&#45;&gt;node11</title>
<path fill="none" stroke="black" d="M947.1,-881.54C944.8,-837.46 940.95,-763.35 938.44,-715.12"/>
<polygon fill="black" stroke="black" points="941.92,-714.75 937.91,-704.95 934.93,-715.12 941.92,-714.75"/>
<text text-anchor="middle" x="948.5" y="-789.5" font-family="Times,serif" font-size="14.00">6</text>
</g>
<!-- node9&#45;&gt;node12 -->
<g id="edge111" class="edge">
<title>node9&#45;&gt;node12</title>
<path fill="none" stroke="black" d="M1005.79,-894.07C1016.73,-889.73 1028.16,-885.41 1039,-881.67 1066.53,-872.19 1080.02,-882.77 1102,-863.67 1141.64,-829.23 1125.32,-802.07 1150,-755.72 1181.06,-697.39 1173.12,-665.04 1229,-629.77 1287.64,-592.75 1317.81,-632.47 1384,-611.77 1410.41,-603.5 1437.71,-589.82 1460.43,-576.78"/>
<polygon fill="black" stroke="black" points="1462.36,-579.7 1469.22,-571.63 1458.82,-573.66 1462.36,-579.7"/>
<text text-anchor="middle" x="1168.5" y="-726.52" font-family="Times,serif" font-size="14.00">5</text>
</g>
<!-- node9&#45;&gt;node13 -->
<g id="edge112" class="edge">
<title>node9&#45;&gt;node13</title>
<path fill="none" stroke="black" d="M923.45,-883.77C895.16,-843.35 851.24,-773.08 834,-704.72 812.68,-620.19 840.34,-519.02 860.78,-461.76"/>
<polygon fill="black" stroke="black" points="864.1,-462.87 864.24,-452.28 857.52,-460.47 864.1,-462.87"/>
<text text-anchor="middle" x="837.5" y="-663.54" font-family="Times,serif" font-size="14.00">4</text>
</g>
<!-- node9&#45;&gt;node14 -->
<g id="edge113" class="edge">
<title>node9&#45;&gt;node14</title>
<path fill="none" stroke="black" d="M996.65,-889.93C1019.34,-874.64 1045.49,-854.09 1064,-830.67 1124.55,-754.05 1095.38,-708.62 1153,-629.77 1252.55,-493.55 1297.24,-472.38 1437,-377.86 1494.27,-339.13 1569.67,-316.77 1627.19,-304.36"/>
<polygon fill="black" stroke="black" points="1627.92,-307.79 1636.99,-302.31 1626.48,-300.93 1627.92,-307.79"/>
<text text-anchor="middle" x="1181.5" y="-600.57" font-family="Times,serif" font-size="14.00">3</text>
</g>
<!-- node9&#45;&gt;node15 -->
<g id="edge114" class="edge">
<title>node9&#45;&gt;node15</title>
<path fill="none" stroke="black" d="M963.24,-882.02C979.86,-839.66 1007.98,-767.31 1031,-704.72 1066.61,-607.93 1080.77,-585.29 1108,-485.81 1124.86,-424.21 1119.86,-406.66 1136,-344.86 1150.87,-287.9 1156.42,-274.06 1177,-218.91 1178.13,-215.88 1179.33,-212.77 1180.57,-209.64"/>
<polygon fill="black" stroke="black" points="1183.84,-210.88 1184.35,-200.3 1177.35,-208.26 1183.84,-210.88"/>
<text text-anchor="middle" x="1106.5" y="-537.59" font-family="Times,serif" font-size="14.00">9</text>
</g>
<!-- node9&#45;&gt;node16 -->
<g id="edge115" class="edge">
<title>node9&#45;&gt;node16</title>
<path fill="none" stroke="black" d="M907.59,-887.65C780.41,-792.41 404,-498.31 404,-353.36 404,-353.36 404,-353.36 404,-162.43 404,-82.52 975.34,-51.05 1201.45,-41.73"/>
<polygon fill="black" stroke="black" points="1201.78,-45.22 1211.63,-41.32 1201.5,-38.22 1201.78,-45.22"/>
<text text-anchor="middle" x="467.5" y="-474.61" font-family="Times,serif" font-size="14.00">5</text>
</g>
<!-- node10&#45;&gt;node11 -->
<g id="edge116" class="edge">
<title>node10&#45;&gt;node11</title>
<path fill="none" stroke="black" d="M1518.91,-778.22C1396.91,-755.2 1154.3,-709.43 1023.85,-684.82"/>
<polygon fill="black" stroke="black" points="1024.36,-681.35 1013.88,-682.94 1023.06,-688.23 1024.36,-681.35"/>
<text text-anchor="middle" x="1311" y="-726.52" font-family="Times,serif" font-size="14.00">10</text>
</g>
<!-- node10&#45;&gt;node12 -->
<g id="edge117" class="edge">
<title>node10&#45;&gt;node12</title>
<path fill="none" stroke="black" d="M1581.51,-755.86C1567.5,-711.53 1543.8,-636.55 1528.53,-588.26"/>
<polygon fill="black" stroke="black" points="1531.85,-587.15 1525.5,-578.67 1525.18,-589.26 1531.85,-587.15"/>
<text text-anchor="middle" x="1569.5" y="-663.54" font-family="Times,serif" font-size="14.00">9</text>
</g>
<!-- node10&#45;&gt;node13 -->
<g id="edge118" class="edge">
<title>node10&#45;&gt;node13</title>
<path fill="none" stroke="black" d="M1546.32,-762.45C1437.33,-693.12 1172.08,-525.02 1129,-503.81 1108.56,-493.75 1102.05,-494.53 1081,-485.81 1066.12,-479.65 1063.23,-476.07 1048,-470.81 1016.01,-459.76 1006.31,-462.9 974,-452.81 965.61,-450.19 956.89,-447.21 948.28,-444.11"/>
<polygon fill="black" stroke="black" points="949.24,-440.73 938.64,-440.57 946.82,-447.3 949.24,-440.73"/>
<text text-anchor="middle" x="1309.5" y="-600.57" font-family="Times,serif" font-size="14.00">8</text>
</g>
<!-- node10&#45;&gt;node14 -->
<g id="edge119" class="edge">
<title>node10&#45;&gt;node14</title>
<path fill="none" stroke="black" d="M1651.1,-767.01C1688.44,-746.48 1730,-713.47 1730,-668.24 1730,-668.24 1730,-668.24 1730,-414.34 1730,-388.51 1726.33,-359.93 1722.4,-336.73"/>
<polygon fill="black" stroke="black" points="1725.84,-336.05 1720.65,-326.81 1718.95,-337.27 1725.84,-336.05"/>
<text text-anchor="middle" x="1733.5" y="-537.59" font-family="Times,serif" font-size="14.00">4</text>
</g>
<!-- node10&#45;&gt;node15 -->
<g id="edge120" class="edge">
<title>node10&#45;&gt;node15</title>
<path fill="none" stroke="black" d="M1651.26,-767.18C1681.62,-754.01 1713.06,-740.1 1716,-737.72 1881.82,-603.82 2103.45,-525.91 1991,-344.86 1941.82,-265.68 1892,-279.6 1803,-251.91 1708.8,-222.6 1431.76,-189.56 1288.32,-173.79"/>
<polygon fill="black" stroke="black" points="1288.55,-170.29 1278.23,-172.68 1287.79,-177.25 1288.55,-170.29"/>
<text text-anchor="middle" x="2024" y="-474.61" font-family="Times,serif" font-size="14.00">13</text>
</g>
<!-- node10&#45;&gt;node16 -->
<g id="edge121" class="edge">
<title>node10&#45;&gt;node16</title>
<path fill="none" stroke="black" d="M1649.82,-766.41C1659.45,-762.53 1669.43,-758.8 1679,-755.72 1713.69,-744.56 1724.6,-749.76 1759,-737.72 1790.71,-726.63 1798.49,-722.49 1827,-704.72 2043.31,-569.87 2336.32,-452.48 2179,-251.91 2080.35,-126.13 1585.86,-66.01 1381.05,-46.2"/>
<polygon fill="black" stroke="black" points="1381.22,-42.7 1370.93,-45.24 1380.55,-49.67 1381.22,-42.7"/>
<text text-anchor="middle" x="2225.5" y="-411.64" font-family="Times,serif" font-size="14.00">4</text>
</g>
<!-- node11&#45;&gt;node12 -->
<g id="edge122" class="edge">
<title>node11&#45;&gt;node12</title>
<path fill="none" stroke="black" d="M1017.08,-654.66C1127.63,-638.85 1312.25,-612.39 1314,-611.77 1326.21,-607.42 1327.17,-602.06 1339,-596.77 1370.18,-582.8 1406,-570.97 1437.07,-561.93"/>
<polygon fill="black" stroke="black" points="1438.33,-565.21 1446.98,-559.1 1436.4,-558.48 1438.33,-565.21"/>
<text text-anchor="middle" x="1342.5" y="-600.57" font-family="Times,serif" font-size="14.00">1</text>
</g>
<!-- node11&#45;&gt;node13 -->
<g id="edge123" class="edge">
<title>node11&#45;&gt;node13</title>
<path fill="none" stroke="black" d="M927.71,-629.9C917.62,-585.67 900.57,-510.91 889.55,-462.6"/>
<polygon fill="black" stroke="black" points="892.93,-461.69 887.3,-452.72 886.11,-463.25 892.93,-461.69"/>
<text text-anchor="middle" x="919.5" y="-537.59" font-family="Times,serif" font-size="14.00">3</text>
</g>
<!-- node11&#45;&gt;node14 -->
<g id="edge124" class="edge">
<title>node11&#45;&gt;node14</title>
<path fill="none" stroke="black" d="M982.7,-635.77C992.26,-628.49 1001.87,-620.33 1010,-611.77 1061.69,-557.35 1045.91,-519.54 1103,-470.81 1206.18,-382.76 1250.86,-383.12 1381,-344.86 1433.58,-329.4 1448.88,-335.55 1503,-326.86 1544.25,-320.24 1589.97,-312.36 1628.18,-305.62"/>
<polygon fill="black" stroke="black" points="1629,-309.03 1638.24,-303.85 1627.78,-302.14 1629,-309.03"/>
<text text-anchor="middle" x="1106.5" y="-474.61" font-family="Times,serif" font-size="14.00">7</text>
</g>
<!-- node11&#45;&gt;node15 -->
<g id="edge125" class="edge">
<title>node11&#45;&gt;node15</title>
<path fill="none" stroke="black" d="M963.19,-631.5C979.07,-607.76 996,-574.81 996,-542.29 996,-542.29 996,-542.29 996,-288.38 996,-229.03 1059.84,-197.29 1116.1,-180.85"/>
<polygon fill="black" stroke="black" points="1117.09,-184.21 1125.77,-178.15 1115.2,-177.47 1117.09,-184.21"/>
<text text-anchor="middle" x="999.5" y="-411.64" font-family="Times,serif" font-size="14.00">3</text>
</g>
<!-- node11&#45;&gt;node16 -->
<g id="edge126" class="edge">
<title>node11&#45;&gt;node16</title>
<path fill="none" stroke="black" d="M888.47,-636.01C757.41,-550.9 405.21,-309.6 478,-218.91 568.12,-106.62 1009.75,-59.89 1202.14,-44.64"/>
<polygon fill="black" stroke="black" points="1202.53,-48.12 1212.23,-43.85 1201.98,-41.14 1202.53,-48.12"/>
<text text-anchor="middle" x="540" y="-348.66" font-family="Times,serif" font-size="14.00">10</text>
</g>
<!-- node12&#45;&gt;node13 -->
<g id="edge127" class="edge">
<title>node12&#45;&gt;node13</title>
<path fill="none" stroke="black" d="M1443.52,-527.26C1363.19,-512.61 1227.87,-488.56 1111,-470.81 1050.28,-461.59 1033.52,-467.92 974,-452.81 965.13,-450.56 955.97,-447.73 946.99,-444.64"/>
<polygon fill="black" stroke="black" points="947.93,-441.26 937.34,-441.21 945.59,-447.86 947.93,-441.26"/>
<text text-anchor="middle" x="1203.5" y="-474.61" font-family="Times,serif" font-size="14.00">2</text>
</g>
<!-- node12&#45;&gt;node14 -->
<g id="edge128" class="edge">
<title>node12&#45;&gt;node14</title>
<path fill="none" stroke="black" d="M1541.25,-506.07C1577.15,-460.99 1640.27,-381.72 1679.17,-332.86"/>
<polygon fill="black" stroke="black" points="1681.95,-335 1685.44,-325 1676.47,-330.64 1681.95,-335"/>
<text text-anchor="middle" x="1646.5" y="-411.64" font-family="Times,serif" font-size="14.00">6</text>
</g>
<!-- node12&#45;&gt;node15 -->
<g id="edge129" class="edge">
<title>node12&#45;&gt;node15</title>
<path fill="none" stroke="black" d="M1467.16,-511.46C1418.9,-479.65 1344.36,-424.32 1298,-359.86 1258.74,-305.27 1276.42,-277.26 1243,-218.91 1240.65,-214.81 1238.02,-210.69 1235.24,-206.65"/>
<polygon fill="black" stroke="black" points="1238.05,-204.57 1229.37,-198.51 1232.37,-208.67 1238.05,-204.57"/>
<text text-anchor="middle" x="1301.5" y="-348.66" font-family="Times,serif" font-size="14.00">4</text>
</g>
<!-- node12&#45;&gt;node16 -->
<g id="edge130" class="edge">
<title>node12&#45;&gt;node16</title>
<path fill="none" stroke="black" d="M1514.02,-503.55C1512.68,-441.62 1503.87,-313.95 1457,-218.91 1429.04,-162.22 1377.78,-110.43 1339.79,-77.02"/>
<polygon fill="black" stroke="black" points="1341.74,-74.08 1331.9,-70.18 1337.16,-79.37 1341.74,-74.08"/>
<text text-anchor="middle" x="1497.5" y="-285.68" font-family="Times,serif" font-size="14.00">8</text>
</g>
<!-- node13&#45;&gt;node14 -->
<g id="edge131" class="edge">
<title>node13&#45;&gt;node14</title>
<path fill="none" stroke="black" d="M937.31,-389.34C949.27,-384.96 961.91,-380.85 974,-377.86 1203.3,-321.17 1268.55,-355.56 1503,-326.86 1544.81,-321.74 1590.96,-313.96 1629.32,-306.9"/>
<polygon fill="black" stroke="black" points="1630.21,-310.3 1639.41,-305.03 1628.94,-303.41 1630.21,-310.3"/>
<text text-anchor="middle" x="1168.5" y="-348.66" font-family="Times,serif" font-size="14.00">4</text>
</g>
<!-- node13&#45;&gt;node15 -->
<g id="edge132" class="edge">
<title>node13&#45;&gt;node15</title>
<path fill="none" stroke="black" d="M895.98,-378.37C921.49,-324.95 968.2,-229.74 982,-218.91 1018.23,-190.48 1067.39,-176.69 1109.86,-170.08"/>
<polygon fill="black" stroke="black" points="1110.54,-173.51 1119.94,-168.62 1109.54,-166.59 1110.54,-173.51"/>
<text text-anchor="middle" x="963.5" y="-285.68" font-family="Times,serif" font-size="14.00">5</text>
</g>
<!-- node13&#45;&gt;node16 -->
<g id="edge133" class="edge">
<title>node13&#45;&gt;node16</title>
<path fill="none" stroke="black" d="M880.83,-377.71C884.09,-342.87 893.12,-290.21 918,-251.91 986.09,-147.05 1124.82,-88.11 1212.84,-59.84"/>
<polygon fill="black" stroke="black" points="1214.03,-63.14 1222.52,-56.79 1211.93,-56.46 1214.03,-63.14"/>
<text text-anchor="middle" x="945.5" y="-222.71" font-family="Times,serif" font-size="14.00">6</text>
</g>
<!-- node14&#45;&gt;node15 -->
<g id="edge134" class="edge">
<title>node14&#45;&gt;node15</title>
<path fill="none" stroke="black" d="M1638.72,-274.76C1584.97,-264.52 1510.71,-249.62 1446,-233.91 1388.71,-219.99 1324.63,-201.81 1276.24,-187.54"/>
<polygon fill="black" stroke="black" points="1277.05,-184.13 1266.47,-184.64 1275.07,-190.84 1277.05,-184.13"/>
<text text-anchor="middle" x="1449.5" y="-222.71" font-family="Times,serif" font-size="14.00">9</text>
</g>
<!-- node14&#45;&gt;node16 -->
<g id="edge135" class="edge">
<title>node14&#45;&gt;node16</title>
<path fill="none" stroke="black" d="M1686.08,-253.83C1649.9,-209.79 1581.35,-134.41 1506,-92.95 1467.06,-71.53 1419.49,-58.34 1379.11,-50.31"/>
<polygon fill="black" stroke="black" points="1379.75,-46.87 1369.27,-48.43 1378.44,-53.75 1379.75,-46.87"/>
<text text-anchor="middle" x="1641.5" y="-159.73" font-family="Times,serif" font-size="14.00">2</text>
</g>
<!-- node15&#45;&gt;node16 -->
<g id="edge136" class="edge">
<title>node15&#45;&gt;node16</title>
<path fill="none" stroke="black" d="M1225.87,-127.57C1236.54,-113.19 1249.02,-96.39 1260.24,-81.27"/>
<polygon fill="black" stroke="black" points="1263.17,-83.19 1266.32,-73.07 1257.55,-79.02 1263.17,-83.19"/>
<text text-anchor="middle" x="1255.5" y="-96.75" font-family="Times,serif" font-size="14.00">9</text>
</g>
</g>
</svg>
