<?xml version="1.0" encoding="UTF-8" standalone="no"?>
<!DOCTYPE svg PUBLIC "-//W3C//DTD SVG 1.1//EN"
 "http://www.w3.org/Graphics/SVG/1.1/DTD/svg11.dtd">
<!-- Generated by graphviz version 6.0.1 (20220911.1526)
 -->
<!-- Title: route Pages: 1 -->
<svg width="1412pt" height="1332pt"
 viewBox="0.00 0.00 1411.86 1332.48" xmlns="http://www.w3.org/2000/svg" xmlns:xlink="http://www.w3.org/1999/xlink">
<g id="graph0" class="graph" transform="scale(1 1) rotate(0) translate(4 1328.48)">
<title>route</title>
<polygon fill="white" stroke="none" points="-4,4 -4,-1328.48 1407.86,-1328.48 1407.86,4 -4,4"/>
<!-- node0 -->
<g id="node1" class="node">
<title>node0</title>
<ellipse fill="none" stroke="black" cx="900.04" cy="-678.4" rx="39.7" ry="26.74"/>
<text text-anchor="middle" x="900.04" y="-682.2" font-family="Times,serif" font-size="14.00">Node 0</text>
<text text-anchor="middle" x="900.04" y="-667.2" font-family="Times,serif" font-size="14.00">Depot</text>
</g>
<!-- node9 -->
<g id="node2" class="node">
<title>node9</title>
<ellipse fill="none" stroke="black" cx="591.42" cy="-570.74" rx="75.82" ry="37.45"/>
<text text-anchor="middle" x="591.42" y="-582.04" font-family="Times,serif" font-size="14.00">Node 9</text>
<text text-anchor="middle" x="591.42" y="-567.04" font-family="Times,serif" font-size="14.00">Demand: 1</text>
<text text-anchor="middle" x="591.42" y="-552.04" font-family="Times,serif" font-size="14.00">Window: [0, 20]</text>
</g>
<!-- node0&#45;&gt;node9 -->
<g id="edge1" class="edge">
<title>node0&#45;&gt;node9</title>
<path fill="none" stroke="black" d="M864.64,-666.05C815.7,-648.97 726.26,-617.77 663.06,-595.73"/>
<polygon fill="black" stroke="black" points="664.14,-592.4 653.55,-592.41 661.84,-599.01 664.14,-592.4"/>
<text text-anchor="middle" x="760.35" y="-634.69" font-family="Times,serif" font-size="14.00">2</text>
</g>
<!-- node7 -->
<g id="node8" class="node">
<title>node7</title>
<ellipse fill="none" stroke="black" cx="961.66" cy="-370.25" rx="75.82" ry="37.45"/>
<text text-anchor="middle" x="961.66" y="-381.55" font-family="Times,serif" font-size="14.00">Node 7</text>
<text text-anchor="middle" x="961.66" y="-366.55" font-family="Times,serif" font-size="14.00">Demand: 3</text>
<text text-anchor="middle" x="961.66" y="-351.55" font-family="Times,serif" font-size="14.00">Window: [0, 20]</text>
</g>
<!-- node0&#45;&gt;node7 -->
<g id="edge8" class="edge">
<title>node0&#45;&gt;node7</title>
<path fill="none" stroke="black" d="M905.4,-651.59C915.85,-599.33 939.07,-483.22 952.18,-417.67"/>
<polygon fill="black" stroke="black" points="955.66,-418.09 954.19,-407.6 948.8,-416.72 955.66,-418.09"/>
<text text-anchor="middle" x="925.29" y="-538.43" font-family="Times,serif" font-size="14.00">2</text>
</g>
<!-- node14 -->
<g id="node13" class="node">
<title>node14</title>
<ellipse fill="none" stroke="black" cx="988.67" cy="-981.32" rx="80.72" ry="37.45"/>
<text text-anchor="middle" x="988.67" y="-992.62" font-family="Times,serif" font-size="14.00">Node 14</text>
<text text-anchor="middle" x="988.67" y="-977.62" font-family="Times,serif" font-size="14.00">Demand: 3</text>
<text text-anchor="middle" x="988.67" y="-962.62" font-family="Times,serif" font-size="14.00">Window: [10, 30]</text>
</g>
<!-- node0&#45;&gt;node14 -->
<g id="edge14" class="edge">
<title>node0&#45;&gt;node14</title>
<path fill="none" stroke="black" d="M907.83,-705.01C922.82,-756.27 955.89,-869.29 974.76,-933.78"/>
<polygon fill="black" stroke="black" points="971.49,-935.08 977.66,-943.69 978.21,-933.11 971.49,-935.08"/>
<text text-anchor="middle" x="937.79" y="-823.2" font-family="Times,serif" font-size="14.00">5</text>
</g>
<!-- node8 -->
<g id="node3" class="node">
<title>node8</title>
<ellipse fill="none" stroke="black" cx="305.58" cy="-528.32" rx="80.72" ry="37.45"/>
<text text-anchor="middle" x="305.58" y="-539.62" font-family="Times,serif" font-size="14.00">Node 8</text>
<text text-anchor="middle" x="305.58" y="-524.62" font-family="Times,serif" font-size="14.00">Demand: 1</text>
<text text-anchor="middle" x="305.58" y="-509.62" font-family="Times,serif" font-size="14.00">Window: [10, 30]</text>
</g>
<!-- node9&#45;&gt;node8 -->
<g id="edge2" class="edge">
<title>node9&#45;&gt;node8</title>
<path fill="none" stroke="black" d="M518.92,-559.98C480.5,-554.27 433.02,-547.23 392.62,-541.23"/>
<polygon fill="black" stroke="black" points="392.91,-537.74 382.51,-539.73 391.88,-544.66 392.91,-537.74"/>
<text text-anchor="middle" x="452.27" y="-554.4" font-family="Times,serif" font-size="14.00">3</text>
</g>
<!-- node5 -->
<g id="node4" class="node">
<title>node5</title>
<ellipse fill="none" stroke="black" cx="83.57" cy="-601.46" rx="75.82" ry="37.45"/>
<text text-anchor="middle" x="83.57" y="-612.76" font-family="Times,serif" font-size="14.00">Node 5</text>
<text text-anchor="middle" x="83.57" y="-597.76" font-family="Times,serif" font-size="14.00">Demand: 2</text>
<text text-anchor="middle" x="83.57" y="-582.76" font-family="Times,serif" font-size="14.00">Window: [0, 20]</text>
</g>
<!-- node8&#45;&gt;node5 -->
<g id="edge3" class="edge">
<title>node8&#45;&gt;node5</title>
<path fill="none" stroke="black" d="M239.57,-550.06C213.39,-558.69 183.19,-568.64 156.37,-577.48"/>
<polygon fill="black" stroke="black" points="155.06,-574.22 146.66,-580.68 157.25,-580.87 155.06,-574.22"/>
<text text-anchor="middle" x="194.47" y="-567.57" font-family="Times,serif" font-size="14.00">2</text>
</g>
<!-- node4 -->
<g id="node5" class="node">
<title>node4</title>
<ellipse fill="none" stroke="black" cx="80.61" cy="-796.75" rx="80.72" ry="37.45"/>
<text text-anchor="middle" x="80.61" y="-808.05" font-family="Times,serif" font-size="14.00">Node 4</text>
<text text-anchor="middle" x="80.61" y="-793.05" font-family="Times,serif" font-size="14.00">Demand: 3</text>
<text text-anchor="middle" x="80.61" y="-778.05" font-family="Times,serif" font-size="14.00">Window: [35, 55]</text>
</g>
<!-- node5&#45;&gt;node4 -->
<g id="edge4" class="edge">
<title>node5&#45;&gt;node4</title>
<path fill="none" stroke="black" d="M83,-639.12C82.53,-670.46 81.85,-715.26 81.33,-749.09"/>
<polygon fill="black" stroke="black" points="77.83,-749.16 81.18,-759.21 84.83,-749.27 77.83,-749.16"/>
<text text-anchor="middle" x="78.67" y="-697.9" font-family="Times,serif" font-size="14.00">6</text>
</g>
<!-- node3 -->
<g id="node6" class="node">
<title>node3</title>
<ellipse fill="none" stroke="black" cx="309.31" cy="-860.8" rx="80.72" ry="37.45"/>
<text text-anchor="middle" x="309.31" y="-872.1" font-family="Times,serif" font-size="14.00">Node 3</text>
<text text-anchor="middle" x="309.31" y="-857.1" font-family="Times,serif" font-size="14.00">Demand: 2</text>
<text text-anchor="middle" x="309.31" y="-842.1" font-family="Times,serif" font-size="14.00">Window: [60, 80]</text>
</g>
<!-- node4&#45;&gt;node3 -->
<g id="edge5" class="edge">
<title>node4&#45;&gt;node3</title>
<path fill="none" stroke="black" d="M149.85,-816.14C175.15,-823.23 203.95,-831.3 230.05,-838.61"/>
<polygon fill="black" stroke="black" points="229.34,-842.04 239.91,-841.37 231.23,-835.3 229.34,-842.04"/>
<text text-anchor="middle" x="186.45" y="-831.18" font-family="Times,serif" font-size="14.00">1</text>
</g>
<!-- node1 -->
<g id="node7" class="node">
<title>node1</title>
<ellipse fill="none" stroke="black" cx="595.43" cy="-804.31" rx="80.72" ry="37.45"/>
<text text-anchor="middle" x="595.43" y="-815.61" font-family="Times,serif" font-size="14.00">Node 1</text>
<text text-anchor="middle" x="595.43" y="-800.61" font-family="Times,serif" font-size="14.00">Demand: 1</text>
<text text-anchor="middle" x="595.43" y="-785.61" font-family="Times,serif" font-size="14.00">Window: [55, 75]</text>
</g>
<!-- node3&#45;&gt;node1 -->
<g id="edge6" class="edge">
<title>node3&#45;&gt;node1</title>
<path fill="none" stroke="black" d="M383.74,-846.11C422.75,-838.41 470.67,-828.95 511.06,-820.97"/>
<polygon fill="black" stroke="black" points="511.75,-824.4 520.88,-819.03 510.39,-817.54 511.75,-824.4"/>
<text text-anchor="middle" x="443.9" y="-837.34" font-family="Times,serif" font-size="14.00">3</text>
</g>
<!-- node1&#45;&gt;node0 -->
<g id="edge7" class="edge">
<title>node1&#45;&gt;node0</title>
<path fill="none" stroke="black" d="M655.98,-779.29C715.27,-754.78 804.14,-718.04 856.69,-696.32"/>
<polygon fill="black" stroke="black" points="858.16,-699.5 866.06,-692.44 855.49,-693.03 858.16,-699.5"/>
<text text-anchor="middle" x="752.83" y="-741.6" font-family="Times,serif" font-size="14.00">6</text>
</g>
<!-- node13 -->
<g id="node9" class="node">
<title>node13</title>
<ellipse fill="none" stroke="black" cx="1073.63" cy="-123.6" rx="80.72" ry="37.45"/>
<text text-anchor="middle" x="1073.63" y="-134.9" font-family="Times,serif" font-size="14.00">Node 13</text>
<text text-anchor="middle" x="1073.63" y="-119.9" font-family="Times,serif" font-size="14.00">Demand: 3</text>
<text text-anchor="middle" x="1073.63" y="-104.9" font-family="Times,serif" font-size="14.00">Window: [15, 35]</text>
</g>
<!-- node7&#45;&gt;node13 -->
<g id="edge9" class="edge">
<title>node7&#45;&gt;node13</title>
<path fill="none" stroke="black" d="M978.3,-333.59C998.12,-289.93 1031.24,-216.98 1052.76,-169.58"/>
<polygon fill="black" stroke="black" points="1055.95,-171.01 1056.9,-160.46 1049.58,-168.12 1055.95,-171.01"/>
<text text-anchor="middle" x="1012.03" y="-255.38" font-family="Times,serif" font-size="14.00">3</text>
</g>
<!-- node12 -->
<g id="node10" class="node">
<title>node12</title>
<ellipse fill="none" stroke="black" cx="1254.82" cy="-37.48" rx="75.82" ry="37.45"/>
<text text-anchor="middle" x="1254.82" y="-48.78" font-family="Times,serif" font-size="14.00">Node 12</text>
<text text-anchor="middle" x="1254.82" y="-33.78" font-family="Times,serif" font-size="14.00">Demand: 2</text>
<text text-anchor="middle" x="1254.82" y="-18.78" font-family="Times,serif" font-size="14.00">Window: [5, 25]</text>
</g>
<!-- node13&#45;&gt;node12 -->
<g id="edge10" class="edge">
<title>node13&#45;&gt;node12</title>
<path fill="none" stroke="black" d="M1130.47,-96.58C1149.64,-87.47 1171.17,-77.24 1190.85,-67.88"/>
<polygon fill="black" stroke="black" points="1192.52,-70.96 1200.05,-63.51 1189.52,-64.64 1192.52,-70.96"/>
<text text-anchor="middle" x="1157.16" y="-71.03" font-family="Times,serif" font-size="14.00">2</text>
</g>
<!-- node15 -->
<g id="node11" class="node">
<title>node15</title>
<ellipse fill="none" stroke="black" cx="1285.17" cy="-239.57" rx="80.72" ry="37.45"/>
<text text-anchor="middle" x="1285.17" y="-250.87" font-family="Times,serif" font-size="14.00">Node 15</text>
<text text-anchor="middle" x="1285.17" y="-235.87" font-family="Times,serif" font-size="14.00">Demand: 1</text>
<text text-anchor="middle" x="1285.17" y="-220.87" font-family="Times,serif" font-size="14.00">Window: [45, 65]</text>
</g>
<!-- node12&#45;&gt;node15 -->
<g id="edge11" class="edge">
<title>node12&#45;&gt;node15</title>
<path fill="none" stroke="black" d="M1260.46,-75.02C1265.41,-107.95 1272.63,-156.02 1277.99,-191.71"/>
<polygon fill="black" stroke="black" points="1274.57,-192.52 1279.51,-201.89 1281.49,-191.48 1274.57,-192.52"/>
<text text-anchor="middle" x="1265.72" y="-137.16" font-family="Times,serif" font-size="14.00">4</text>
</g>
<!-- node11 -->
<g id="node12" class="node">
<title>node11</title>
<ellipse fill="none" stroke="black" cx="1134.73" cy="-465.7" rx="85.62" ry="37.45"/>
<text text-anchor="middle" x="1134.73" y="-477" font-family="Times,serif" font-size="14.00">Node 11</text>
<text text-anchor="middle" x="1134.73" y="-462" font-family="Times,serif" font-size="14.00">Demand: 1</text>
<text text-anchor="middle" x="1134.73" y="-447" font-family="Times,serif" font-size="14.00">Window: [85, 105]</text>
</g>
<!-- node15&#45;&gt;node11 -->
<g id="edge12" class="edge">
<title>node15&#45;&gt;node11</title>
<path fill="none" stroke="black" d="M1261.33,-275.4C1235.06,-314.9 1192.76,-378.48 1164.37,-421.16"/>
<polygon fill="black" stroke="black" points="1161.33,-419.4 1158.71,-429.67 1167.16,-423.28 1161.33,-419.4"/>
<text text-anchor="middle" x="1209.35" y="-352.08" font-family="Times,serif" font-size="14.00">3</text>
</g>
<!-- node11&#45;&gt;node0 -->
<g id="edge13" class="edge">
<title>node11&#45;&gt;node0</title>
<path fill="none" stroke="black" d="M1097.28,-499.64C1051.48,-541.16 974.73,-610.71 931.72,-649.69"/>
<polygon fill="black" stroke="black" points="929.16,-647.29 924.1,-656.59 933.86,-652.47 929.16,-647.29"/>
<text text-anchor="middle" x="1011" y="-578.46" font-family="Times,serif" font-size="14.00">6</text>
</g>
<!-- node16 -->
<g id="node14" class="node">
<title>node16</title>
<ellipse fill="none" stroke="black" cx="1124.21" cy="-1217.33" rx="80.72" ry="37.45"/>
<text text-anchor="middle" x="1124.21" y="-1228.63" font-family="Times,serif" font-size="14.00">Node 16</text>
<text text-anchor="middle" x="1124.21" y="-1213.63" font-family="Times,serif" font-size="14.00">Demand: 1</text>
<text text-anchor="middle" x="1124.21" y="-1198.63" font-family="Times,serif" font-size="14.00">Window: [30, 50]</text>
</g>
<!-- node14&#45;&gt;node16 -->
<g id="edge15" class="edge">
<title>node14&#45;&gt;node16</title>
<path fill="none" stroke="black" d="M1009.55,-1017.68C1033.38,-1059.17 1072.38,-1127.08 1098.17,-1171.99"/>
<polygon fill="black" stroke="black" points="1095.29,-1174 1103.3,-1180.93 1101.36,-1170.51 1095.29,-1174"/>
<text text-anchor="middle" x="1050.36" y="-1098.64" font-family="Times,serif" font-size="14.00">2</text>
</g>
<!-- node6 -->
<g id="node15" class="node">
<title>node6</title>
<ellipse fill="none" stroke="black" cx="1315.25" cy="-1287" rx="80.72" ry="37.45"/>
<text text-anchor="middle" x="1315.25" y="-1298.3" font-family="Times,serif" font-size="14.00">Node 6</text>
<text text-anchor="middle" x="1315.25" y="-1283.3" font-family="Times,serif" font-size="14.00">Demand: 3</text>
<text text-anchor="middle" x="1315.25" y="-1268.3" font-family="Times,serif" font-size="14.00">Window: [55, 75]</text>
</g>
<!-- node16&#45;&gt;node6 -->
<g id="edge16" class="edge">
<title>node16&#45;&gt;node6</title>
<path fill="none" stroke="black" d="M1187.82,-1240.53C1205.13,-1246.84 1224.02,-1253.73 1241.83,-1260.22"/>
<polygon fill="black" stroke="black" points="1240.99,-1263.65 1251.59,-1263.78 1243.39,-1257.07 1240.99,-1263.65"/>
<text text-anchor="middle" x="1211.32" y="-1254.18" font-family="Times,serif" font-size="14.00">5</text>
</g>
<!-- node2 -->
<g id="node16" class="node">
<title>node2</title>
<ellipse fill="none" stroke="black" cx="1323.25" cy="-1083.14" rx="80.72" ry="37.45"/>
<text text-anchor="middle" x="1323.25" y="-1094.44" font-family="Times,serif" font-size="14.00">Node 2</text>
<text text-anchor="middle" x="1323.25" y="-1079.44" font-family="Times,serif" font-size="14.00">Demand: 1</text>
<text text-anchor="middle" x="1323.25" y="-1064.44" font-family="Times,serif" font-size="14.00">Window: [75, 95]</text>
</g>
<!-- node6&#45;&gt;node2 -->
<g id="edge17" class="edge">
<title>node6&#45;&gt;node2</title>
<path fill="none" stroke="black" d="M1316.74,-1249.14C1318.04,-1215.81 1319.95,-1167.12 1321.37,-1131.08"/>
<polygon fill="black" stroke="black" points="1324.88,-1130.94 1321.77,-1120.81 1317.88,-1130.66 1324.88,-1130.94"/>
<text text-anchor="middle" x="1315.55" y="-1193.91" font-family="Times,serif" font-size="14.00">3</text>
</g>
<!-- node10 -->
<g id="node17" class="node">
<title>node10</title>
<ellipse fill="none" stroke="black" cx="1152.12" cy="-870.98" rx="80.72" ry="37.45"/>
<text text-anchor="middle" x="1152.12" y="-882.28" font-family="Times,serif" font-size="14.00">Node 10</text>
<text text-anchor="middle" x="1152.12" y="-867.28" font-family="Times,serif" font-size="14.00">Demand: 2</text>
<text text-anchor="middle" x="1152.12" y="-852.28" font-family="Times,serif" font-size="14.00">Window: [75, 95]</text>
</g>
<!-- node2&#45;&gt;node10 -->
<g id="edge18" class="edge">
<title>node2&#45;&gt;node10</title>
<path fill="none" stroke="black" d="M1294.61,-1047.63C1265.03,-1010.96 1218.84,-953.69 1187.11,-914.36"/>
<polygon fill="black" stroke="black" points="1189.58,-911.84 1180.57,-906.25 1184.13,-916.24 1189.58,-911.84"/>
<text text-anchor="middle" x="1237.36" y="-984.8" font-family="Times,serif" font-size="14.00">4</text>
</g>
<!-- node10&#45;&gt;node0 -->
<g id="edge19" class="edge">
<title>node10&#45;&gt;node0</title>
<path fill="none" stroke="black" d="M1110.21,-838.96C1061.05,-801.41 980.47,-739.84 934.68,-704.86"/>
<polygon fill="black" stroke="black" points="936.63,-701.94 926.56,-698.65 932.38,-707.51 936.63,-701.94"/>
<text text-anchor="middle" x="1018.95" y="-775.71" font-family="Times,serif" font-size="14.00">6</text>
</g>
</g>
</svg>
